<svg width="28" height="28" viewBox="0 0 28 28" fill="none" xmlns="http://www.w3.org/2000/svg">
<path d="M14 28C21.732 28 28 21.732 28 14C28 6.26802 21.732 0 14 0C6.26802 0 0 6.26802 0 14C0 21.732 6.26802 28 14 28Z" fill="#7CE6E6"/>
<path d="M15.3343 21.9587H12.4658V27.2307H15.3343V21.9587Z" fill="#944732"/>
<path d="M18.9862 15.5658C21.8162 12.7358 21.8162 8.14749 18.9862 5.31751C16.1562 2.48752 11.5679 2.48753 8.73791 5.31751C5.90792 8.14749 5.90793 12.7358 8.73791 15.5658C11.5679 18.3958 16.1562 18.3958 18.9862 15.5658Z" fill="#262424"/>
<path d="M8.2739 13.5518C8.61574 12.9451 8.40105 12.1762 7.79439 11.8344C7.18772 11.4925 6.4188 11.7072 6.07696 12.3139C5.73512 12.9206 5.94981 13.6895 6.55648 14.0313C7.16314 14.3731 7.93206 14.1585 8.2739 13.5518Z" fill="#262424"/>
<path d="M6.83792 11.6711C7.53166 11.6109 8.04524 10.9997 7.98504 10.3059C7.92483 9.61218 7.31364 9.0986 6.6199 9.15881C5.92616 9.21902 5.41258 9.83021 5.47278 10.5239C5.53299 11.2177 6.14418 11.7313 6.83792 11.6711Z" fill="#262424"/>
<path d="M8.05726 8.91451C8.58582 8.46116 8.64679 7.66516 8.19344 7.1366C7.74009 6.60805 6.9441 6.54708 6.41554 7.00043C5.88698 7.45378 5.82601 8.24977 6.27936 8.77833C6.73271 9.30689 7.5287 9.36786 8.05726 8.91451Z" fill="#262424"/>
<path d="M8.49327 7.07712C9.18962 7.07712 9.75412 6.51262 9.75412 5.81627C9.75412 5.11992 9.18962 4.55542 8.49327 4.55542C7.79692 4.55542 7.23242 5.11992 7.23242 5.81627C7.23242 6.51262 7.79692 7.07712 8.49327 7.07712Z" fill="#262424"/>
<path d="M11.3327 4.97679C11.7829 4.44555 11.7172 3.64994 11.186 3.19973C10.6547 2.74953 9.85912 2.81522 9.40892 3.34646C8.95871 3.87769 9.0244 4.67331 9.55564 5.12352C10.0869 5.57372 10.8825 5.50803 11.3327 4.97679Z" fill="#262424"/>
<path d="M14.0007 3.1814C14.0147 3.43032 13.9546 3.67782 13.828 3.8926C13.7014 4.10738 13.5139 4.2798 13.2893 4.38807C13.0647 4.49633 12.8131 4.53559 12.5662 4.50087C12.3193 4.46615 12.0883 4.35901 11.9023 4.193C11.7162 4.02698 11.5836 3.80955 11.5212 3.56818C11.4587 3.32681 11.4692 3.07235 11.5513 2.83694C11.6335 2.60154 11.7836 2.39577 11.9826 2.24565C12.1817 2.09552 12.4208 2.00778 12.6697 1.99352C12.8351 1.98404 13.0007 2.00726 13.1572 2.06184C13.3136 2.11642 13.4577 2.20129 13.5814 2.31161C13.705 2.42193 13.8056 2.55553 13.8776 2.70478C13.9495 2.85402 13.9913 3.01598 14.0007 3.1814Z" fill="#262424"/>
<path d="M16.5305 3.33591C16.5466 2.63974 15.9952 2.06239 15.2991 2.04635C14.6029 2.0303 14.0256 2.58165 14.0095 3.27782C13.9935 3.97398 14.5448 4.55133 15.241 4.56738C15.9371 4.58342 16.5145 4.03207 16.5305 3.33591Z" fill="#262424"/>
<path d="M18.6986 4.91949C19.0769 4.33489 18.9097 3.55427 18.3251 3.17593C17.7405 2.79759 16.9599 2.96479 16.5815 3.5494C16.2032 4.134 16.3704 4.91462 16.955 5.29296C17.5396 5.6713 18.3202 5.50409 18.6986 4.91949Z" fill="#262424"/>
<path d="M20.7844 6.24601C21.0134 5.58839 20.6659 4.86965 20.0083 4.64064C19.3507 4.41164 18.6319 4.75909 18.4029 5.41671C18.1739 6.07432 18.5214 6.79307 19.179 7.02207C19.8366 7.25108 20.5554 6.90362 20.7844 6.24601Z" fill="#262424"/>
<path d="M21.9035 8.7136C22.3037 8.14374 22.1662 7.35735 21.5963 6.95715C21.0265 6.55694 20.2401 6.69447 19.8399 7.26433C19.4397 7.83418 19.5772 8.62057 20.1471 9.02078C20.7169 9.42098 21.5033 9.28345 21.9035 8.7136Z" fill="#262424"/>
<path d="M21.4006 11.7452C22.0966 11.7236 22.6433 11.1418 22.6217 10.4458C22.6 9.74982 22.0183 9.20312 21.3223 9.22475C20.6262 9.24638 20.0795 9.82814 20.1012 10.5242C20.1228 11.2202 20.7046 11.7669 21.4006 11.7452Z" fill="#262424"/>
<path d="M21.8722 12.8435C21.8863 13.0924 21.8262 13.3399 21.6996 13.5546C21.573 13.7694 21.3856 13.9418 21.161 14.0501C20.9365 14.1584 20.6849 14.1976 20.438 14.163C20.1911 14.1283 19.9601 14.0212 19.774 13.8552C19.588 13.6893 19.4554 13.4719 19.3928 13.2306C19.3303 12.9893 19.3407 12.7348 19.4228 12.4994C19.5048 12.264 19.6548 12.0582 19.8538 11.908C20.0528 11.7578 20.2918 11.67 20.5407 11.6556C20.7061 11.6462 20.8718 11.6694 21.0283 11.7239C21.1847 11.7785 21.3289 11.8634 21.4526 11.9737C21.5762 12.084 21.6769 12.2176 21.749 12.3668C21.821 12.5161 21.8629 12.6781 21.8722 12.8435Z" fill="#262424"/>
<path d="M7.47717 16.0661C8.42448 15.9124 9.06777 15.0198 8.914 14.0725C8.76023 13.1252 7.86763 12.4819 6.92033 12.6356C5.97302 12.7894 5.32973 13.682 5.4835 14.6293C5.63727 15.5766 6.52987 16.2199 7.47717 16.0661Z" fill="#944732"/>
<path d="M21.7438 15.5798C22.4224 14.9012 22.4224 13.8009 21.7438 13.1223C21.0652 12.4437 19.965 12.4437 19.2864 13.1223C18.6077 13.8009 18.6077 14.9012 19.2864 15.5798C19.965 16.2584 21.0652 16.2584 21.7438 15.5798Z" fill="#944732"/>
<path d="M14.0748 6.45996H13.5906C10.0764 6.45996 7.22754 9.3088 7.22754 12.823V16.833C7.22754 20.3472 10.0764 23.196 13.5906 23.196H14.0748C17.589 23.196 20.4379 20.3472 20.4379 16.833V12.823C20.4379 9.3088 17.589 6.45996 14.0748 6.45996Z" fill="#944732"/>
<path d="M15.3347 24.9004L13.9004 23.4661L12.4661 24.9004L13.9004 26.3347L15.3347 24.9004Z" fill="#944732"/>
<path d="M13.8327 8.67841C15.7893 8.67841 17.3755 8.04123 17.3755 7.25522C17.3755 6.46922 15.7893 5.83203 13.8327 5.83203C11.8762 5.83203 10.29 6.46922 10.29 7.25522C10.29 8.04123 11.8762 8.67841 13.8327 8.67841Z" fill="#262424"/>
<path d="M11.3572 13.6956C11.3573 13.8399 11.3146 13.9809 11.2345 14.1009C11.1545 14.2209 11.0406 14.3144 10.9073 14.3697C10.7741 14.425 10.6274 14.4394 10.486 14.4113C10.3445 14.3832 10.2145 14.3138 10.1125 14.2117C10.0105 14.1097 9.94102 13.9798 9.91291 13.8383C9.88479 13.6968 9.89928 13.5501 9.95454 13.4169C10.0098 13.2836 10.1033 13.1698 10.2233 13.0897C10.3433 13.0096 10.4844 12.9669 10.6286 12.967C10.8219 12.967 11.0072 13.0438 11.1438 13.1804C11.2804 13.3171 11.3572 13.5024 11.3572 13.6956Z" fill="#262424"/>
<path d="M17.5999 13.6956C17.6 13.8398 17.5573 13.9809 17.4773 14.1008C17.3972 14.2208 17.2834 14.3144 17.1502 14.3696C17.0169 14.4249 16.8703 14.4394 16.7288 14.4114C16.5874 14.3833 16.4574 14.3139 16.3554 14.2119C16.2533 14.11 16.1838 13.9801 16.1557 13.8386C16.1275 13.6972 16.1419 13.5505 16.197 13.4173C16.2522 13.284 16.3457 13.1701 16.4656 13.09C16.5855 13.0098 16.7265 12.967 16.8707 12.967C16.9665 12.967 17.0613 12.9858 17.1497 13.0223C17.2382 13.0589 17.3186 13.1126 17.3863 13.1802C17.454 13.2479 17.5077 13.3282 17.5444 13.4167C17.581 13.5051 17.5999 13.5999 17.5999 13.6956Z" fill="#262424"/>
<path d="M11.2246 16.0891C12.9929 19.2568 14.7317 19.3671 16.4405 16.0891H11.2246Z" fill="#FFFEF9"/>
</svg>
