<svg xmlns="http://www.w3.org/2000/svg" version="1.1" xmlns:xlink="http://www.w3.org/1999/xlink" xmlns:svgjs="http://svgjs.com/svgjs" width="512" height="512" x="0" y="0" viewBox="0 0 64 64" style="enable-background:new 0 0 512 512" xml:space="preserve" class="hovered-paths">
    <g>
        <g data-name="Layer 26">
            <path d="M35.32 2.5h-6.64A5.55 5.55 0 0 0 23.14 8v52a1.5 1.5 0 0 0 1.5 1.5h14.72a1.5 1.5 0 0 0 1.5-1.5V8a5.55 5.55 0 0 0-5.54-5.5zm2.54 56H26.14V8a2.54 2.54 0 0 1 2.54-2.5h6.64A2.54 2.54 0 0 1 37.86 8zM56 16.11h-6.68a5.54 5.54 0 0 0-5.53 5.53V60a1.5 1.5 0 0 0 1.5 1.5H60a1.5 1.5 0 0 0 1.5-1.5V21.64a5.54 5.54 0 0 0-5.5-5.53zm2.5 42.39H46.79V21.64a2.53 2.53 0 0 1 2.53-2.53H56a2.54 2.54 0 0 1 2.54 2.53zM14.68 25H8a5.54 5.54 0 0 0-5.5 5.54V60A1.5 1.5 0 0 0 4 61.5h14.71a1.5 1.5 0 0 0 1.5-1.5V30.54A5.54 5.54 0 0 0 14.68 25zm2.53 33.5H5.5v-28A2.54 2.54 0 0 1 8 28h6.64a2.54 2.54 0 0 1 2.53 2.54z" fill="#7AC7C4" data-original="#000000" class="hovered-path"></path>
        </g>
    </g>
</svg>