<svg width="28" height="28" viewBox="0 0 28 28" fill="none" xmlns="http://www.w3.org/2000/svg">
<path d="M14.0417 22.9077C13.6468 22.9084 13.2556 22.8306 12.8906 22.6788C12.5257 22.527 12.1941 22.3041 11.9151 22.023L10.7466 20.8471C10.5921 20.6909 10.4083 20.5671 10.2059 20.4828C10.0035 20.3985 9.78644 20.3553 9.56735 20.3559H8.19716C7.39997 20.3548 6.63574 20.0359 6.07204 19.4689C5.50834 18.902 5.19118 18.1334 5.19012 17.3317V15.9543C5.19062 15.7339 5.14765 15.5156 5.06369 15.3121C4.97974 15.1085 4.85646 14.9237 4.70101 14.7684L3.53249 13.5925C2.96934 13.0248 2.65308 12.2556 2.65308 11.4537C2.65308 10.6518 2.96934 9.88263 3.53249 9.31493L4.70168 8.13974C4.85698 7.98433 4.98011 7.7995 5.06395 7.59593C5.14779 7.39237 5.19067 7.17411 5.19012 6.95377V5.57576C5.19118 4.77401 5.50834 4.00541 6.07204 3.43849C6.63574 2.87157 7.39997 2.55261 8.19716 2.55154H9.56668C9.78582 2.55204 10.0029 2.50882 10.2053 2.42439C10.4077 2.33995 10.5915 2.21597 10.7459 2.05963L11.9151 0.884442C12.4796 0.318072 13.2444 0 14.0417 0C14.8391 0 15.6039 0.318072 16.1684 0.884442L17.3382 2.0603C17.4928 2.21649 17.6765 2.34033 17.8789 2.42465C18.0814 2.50896 18.2984 2.55209 18.5175 2.55154H19.887C20.6842 2.55261 21.4484 2.87157 22.0121 3.43849C22.5758 4.00541 22.893 4.77401 22.894 5.57576V6.9531C22.8935 7.17349 22.9365 7.39178 23.0204 7.59536C23.1044 7.79893 23.2277 7.98373 23.3831 8.13907L24.5516 9.31493C25.1148 9.88263 25.4311 10.6518 25.4311 11.4537C25.4311 12.2556 25.1148 13.0248 24.5516 13.5925L23.3831 14.7677C23.2277 14.923 23.1044 15.1078 23.0204 15.3114C22.9365 15.515 22.8935 15.7333 22.894 15.9537V17.3317C22.893 18.1334 22.5758 18.902 22.0121 19.4689C21.4484 20.0359 20.6842 20.3548 19.887 20.3559H18.5175C18.2983 20.3554 18.0813 20.3986 17.8788 20.483C17.6764 20.5675 17.4927 20.6915 17.3382 20.8478L16.169 22.023C15.8899 22.3041 15.5582 22.527 15.1932 22.6788C14.8281 22.8307 14.4368 22.9084 14.0417 22.9077ZM8.19716 3.89855C7.75503 3.89927 7.33123 4.07631 7.01872 4.39086C6.70621 4.70541 6.53051 5.13177 6.53016 5.57643V6.9531C6.5312 7.35058 6.45387 7.74432 6.30264 8.11156C6.1514 8.47879 5.92927 8.81222 5.64908 9.09256L4.48057 10.2677C4.16831 10.5825 3.99294 11.009 3.99294 11.4537C3.99294 11.8984 4.16831 12.3249 4.48057 12.6397L5.64975 13.8149C5.93 14.0952 6.15217 14.4286 6.30341 14.7958C6.45465 15.1631 6.53195 15.5568 6.53083 15.9543V17.3317C6.53154 17.7761 6.70739 18.2021 7.01987 18.5164C7.33234 18.8306 7.75593 19.0075 8.19783 19.0082H9.56735C9.96258 19.0071 10.3541 19.0849 10.7192 19.237C11.0844 19.3891 11.4159 19.6125 11.6947 19.8943L12.8632 21.0702C13.1762 21.3842 13.6003 21.5606 14.0424 21.5606C14.4845 21.5606 14.9086 21.3842 15.2216 21.0702L16.3901 19.8943C16.6689 19.6125 17.0004 19.389 17.3655 19.2369C17.7307 19.0848 18.1222 19.0071 18.5175 19.0082H19.887C20.3289 19.0075 20.7525 18.8306 21.0649 18.5164C21.3774 18.2021 21.5533 17.7761 21.554 17.3317V15.9543C21.5529 15.5568 21.6303 15.1631 21.7815 14.7959C21.9327 14.4286 22.1549 14.0952 22.4351 13.8149L23.6042 12.6397C23.9165 12.3249 24.0919 11.8984 24.0919 11.4537C24.0919 11.009 23.9165 10.5825 23.6042 10.2677L22.4351 9.09256C22.1548 8.81226 21.9326 8.47884 21.7814 8.1116C21.6302 7.74436 21.5529 7.35059 21.554 6.9531V5.57576C21.5533 5.13133 21.3774 4.70531 21.0649 4.39106C20.7525 4.0768 20.3289 3.89994 19.887 3.89923H18.5175C18.1222 3.90028 17.7307 3.8225 17.3656 3.67041C17.0004 3.51831 16.6689 3.29491 16.3901 3.01312L15.221 1.83793C14.908 1.52389 14.4839 1.34752 14.0417 1.34752C13.5996 1.34752 13.1755 1.52389 12.8625 1.83793L11.694 3.01379C11.4153 3.29564 11.0838 3.51908 10.7186 3.67118C10.3534 3.82329 9.96192 3.90103 9.56668 3.8999L8.19716 3.89855Z" fill="#EA5581"/>
<path d="M14.0414 18.6731C12.6216 18.6731 11.2337 18.2496 10.0532 17.4563C8.87266 16.663 7.95256 15.5355 7.40923 14.2163C6.8659 12.8971 6.72374 11.4455 7.00073 10.045C7.27772 8.64454 7.96141 7.35813 8.96535 6.34846C9.9693 5.33878 11.2484 4.65118 12.6409 4.37261C14.0334 4.09404 15.4768 4.23702 16.7885 4.78345C18.1002 5.32988 19.2214 6.25523 20.0101 7.44249C20.7989 8.62974 21.22 10.0256 21.22 11.4535C21.2177 13.3675 20.4606 15.2025 19.1149 16.5559C17.7691 17.9094 15.9445 18.6707 14.0414 18.6731ZM14.0414 5.58158C12.8866 5.58158 11.7578 5.92596 10.7977 6.57117C9.83751 7.21639 9.08917 8.13345 8.64727 9.2064C8.20536 10.2793 8.08974 11.46 8.31502 12.599C8.5403 13.7381 9.09637 14.7843 9.9129 15.6055C10.7294 16.4267 11.7698 16.986 12.9023 17.2125C14.0349 17.4391 15.2088 17.3228 16.2757 16.8784C17.3425 16.434 18.2544 15.6813 18.8959 14.7157C19.5375 13.7501 19.8799 12.6148 19.8799 11.4535C19.8781 9.8967 19.2624 8.4042 18.1679 7.30339C17.0733 6.20258 15.5893 5.58337 14.0414 5.58158Z" fill="#EA5581"/>
<path d="M6.76721 27.949C6.73103 27.949 6.69485 27.9483 6.65867 27.945C6.43106 27.9277 6.21168 27.8519 6.0216 27.7248C5.83152 27.5977 5.67713 27.4236 5.57324 27.2192L4.15414 24.48L1.12096 23.9713C0.896264 23.9336 0.6848 23.8391 0.506505 23.6965C0.32821 23.5539 0.188959 23.368 0.101879 23.1563C0.0147993 22.9446 -0.0172404 22.7141 0.00878067 22.4865C0.0348017 22.2589 0.118026 22.0417 0.250608 21.8554L5.23823 14.9458C5.28866 14.8712 5.35348 14.8075 5.42885 14.7585C5.50422 14.7095 5.5886 14.6763 5.67699 14.6608C5.76537 14.6452 5.85596 14.6477 5.94338 14.668C6.0308 14.6884 6.11326 14.7261 6.18589 14.7791C6.25851 14.8321 6.31981 14.8993 6.36615 14.9765C6.41249 15.0538 6.44292 15.1396 6.45565 15.229C6.46837 15.3183 6.46313 15.4093 6.44022 15.4965C6.41732 15.5838 6.37722 15.6655 6.32232 15.7369L1.33738 22.6438L4.37524 23.1472C4.58257 23.1813 4.77887 23.2645 4.948 23.3899C5.11713 23.5152 5.25426 23.6791 5.34811 23.8682L6.76319 26.6L11.1806 20.4781C11.2323 20.4064 11.2975 20.3456 11.3724 20.2993C11.4474 20.253 11.5308 20.2219 11.6177 20.208C11.7046 20.194 11.7934 20.1974 11.879 20.218C11.9646 20.2385 12.0454 20.2759 12.1166 20.3278C12.1879 20.3797 12.2483 20.4453 12.2944 20.5207C12.3405 20.5961 12.3713 20.6799 12.3852 20.7674C12.3991 20.8548 12.3957 20.9441 12.3752 21.0302C12.3548 21.1163 12.3177 21.1975 12.2661 21.2692L7.85063 27.3944C7.72649 27.5664 7.56356 27.7063 7.37523 27.8027C7.1869 27.8992 6.97853 27.9493 6.76721 27.949ZM21.2028 27.9995C20.9903 28.0002 20.7809 27.9496 20.5919 27.8521C20.4029 27.7546 20.24 27.6129 20.1167 27.4389L15.7682 21.3197C15.7162 21.2478 15.6788 21.1662 15.6582 21.0796C15.6377 20.9931 15.6344 20.9033 15.6485 20.8154C15.6626 20.7276 15.6939 20.6434 15.7406 20.5678C15.7872 20.4922 15.8483 20.4267 15.9203 20.3749C15.9923 20.3232 16.0737 20.2863 16.16 20.2663C16.2462 20.2464 16.3355 20.2439 16.4227 20.2589C16.5099 20.2739 16.5933 20.3061 16.6681 20.3536C16.7429 20.4012 16.8075 20.4632 16.8584 20.536L21.2068 26.6545L22.642 23.9214C22.7402 23.7328 22.8818 23.5705 23.055 23.4481C23.2282 23.3256 23.4279 23.2465 23.6376 23.2173L26.6607 22.7348L21.7374 15.8144C21.6854 15.7424 21.648 15.6608 21.6274 15.5743C21.6069 15.4877 21.6036 15.398 21.6177 15.3101C21.6318 15.2223 21.6631 15.1381 21.7098 15.0625C21.7564 14.9869 21.8175 14.9213 21.8895 14.8696C21.9615 14.8178 22.0429 14.7809 22.1291 14.761C22.2154 14.7411 22.3047 14.7386 22.3919 14.7536C22.4791 14.7685 22.5625 14.8007 22.6373 14.8483C22.7121 14.8959 22.7767 14.9579 22.8276 15.0307L27.7455 21.9511C27.8792 22.1349 27.9636 22.3502 27.9906 22.5764C28.0176 22.8025 27.9862 23.0318 27.8996 23.2422C27.8136 23.4566 27.6741 23.645 27.4945 23.7893C27.3149 23.9335 27.1014 24.0287 26.8745 24.0656L23.8286 24.5515L22.3927 27.2805C22.2861 27.4844 22.1291 27.6573 21.9369 27.7826C21.7448 27.9079 21.5238 27.9814 21.2952 27.9962C21.2645 27.9984 21.2336 27.9996 21.2028 27.9995ZM13.5659 14.1109C13.4102 14.1111 13.2593 14.0568 13.1391 13.9573L11.2228 12.3704C11.0882 12.256 11.0037 12.0929 10.9878 11.9164C10.9719 11.7398 11.0258 11.5641 11.1378 11.4272C11.2498 11.2904 11.4109 11.2034 11.5862 11.1852C11.7616 11.167 11.937 11.219 12.0744 11.3299L13.4667 12.4822L16.1984 9.0483C16.2534 8.97919 16.3214 8.92165 16.3985 8.87896C16.4756 8.83628 16.5603 8.80928 16.6478 8.79952C16.7352 8.78976 16.8238 8.79742 16.9083 8.82207C16.9928 8.84672 17.0717 8.88787 17.1404 8.94318C17.2092 8.99849 17.2664 9.06686 17.3088 9.14441C17.3513 9.22195 17.3781 9.30715 17.3878 9.39512C17.3975 9.4831 17.3899 9.57214 17.3654 9.65715C17.3409 9.74217 17.3 9.8215 17.245 9.89061L14.0885 13.8582C14.0331 13.9279 13.9644 13.9858 13.8866 14.0286C13.8087 14.0714 13.7232 14.0983 13.6349 14.1075C13.6117 14.1098 13.5885 14.1109 13.5652 14.1109H13.5659Z" fill="#EA5581"/>
</svg>
