<svg width="298" height="250" viewBox="0 0 298 250" fill="none" xmlns="http://www.w3.org/2000/svg">
<rect width="298" height="250" rx="10" fill="#FF6000"/>
<path d="M8.5 46C8.5 41.3056 12.3056 37.5 17 37.5C21.6944 37.5 25.5 41.3056 25.5 46V92C25.5 96.6944 21.6944 100.5 17 100.5C12.3056 100.5 8.5 96.6944 8.5 92V46Z" fill="#4C3D3D"/>
<path d="M275 172C275 167.306 278.806 163.5 283.5 163.5C288.194 163.5 292 167.306 292 172V218C292 222.694 288.194 226.5 283.5 226.5C278.806 226.5 275 222.694 275 218V172Z" fill="#4C3D3D"/>
<ellipse cx="150" cy="90.0384" rx="2" ry="7.80769" fill="#FFE6C7"/>
<ellipse cx="150" cy="117.654" rx="2" ry="7.80769" fill="#FFE6C7"/>
<ellipse cx="150" cy="145.269" rx="2" ry="7.80769" fill="#FFE6C7"/>
<ellipse cx="150" cy="172.884" rx="2" ry="7.80769" fill="#FFE6C7"/>
<ellipse cx="150" cy="200.5" rx="2" ry="7.80769" fill="#FFE6C7"/>
<ellipse cx="150" cy="62.423" rx="2" ry="7.80769" fill="#FFE6C7"/>
<ellipse cx="150" cy="34.8077" rx="2" ry="7.80769" fill="#FFE6C7"/>
<circle cx="59.5" cy="117.5" r="7.5" fill="#FFB26B"/>
<path d="M116.078 206.221C116.662 204.33 119.338 204.33 119.922 206.221C120.183 207.064 120.971 207.639 121.853 207.639C123.831 207.639 124.714 210.15 123.142 211.351L122.978 211.476C122.282 212.007 121.991 212.917 122.25 213.753L122.335 214.028C122.909 215.886 120.759 217.386 119.213 216.205C118.497 215.658 117.503 215.658 116.787 216.205C115.241 217.386 113.091 215.886 113.665 214.028L113.75 213.753C114.009 212.917 113.718 212.007 113.022 211.476L112.858 211.351C111.286 210.15 112.169 207.639 114.147 207.639C115.029 207.639 115.817 207.064 116.078 206.221Z" fill="#FFE6C7"/>
</svg>
