<svg width="384" height="325" viewBox="0 0 384 325" fill="none" xmlns="http://www.w3.org/2000/svg">
<g filter="url(#filter0_d_541_51)">
<rect x="4.23633" y="0.263184" width="375.763" height="315.789" rx="10" fill="#FF6000"/>
<path d="M14.9551 58.3497C14.9551 52.4303 19.7537 47.6316 25.6731 47.6316C31.5926 47.6316 36.3912 52.4302 36.3912 58.3497V116.492C36.3912 122.412 31.5926 127.211 25.6731 127.211C19.7537 127.211 14.9551 122.412 14.9551 116.492V58.3497Z" fill="#4C3D3D"/>
<path d="M350.998 217.508C350.998 211.588 355.797 206.789 361.716 206.789C367.635 206.789 372.434 211.588 372.434 217.508V275.65C372.434 281.57 367.635 286.368 361.716 286.368C355.797 286.368 350.998 281.57 350.998 275.65V217.508Z" fill="#4C3D3D"/>
<ellipse cx="193.379" cy="113.996" rx="2.5219" ry="9.86235" fill="#FFE6C7"/>
<ellipse cx="193.379" cy="148.878" rx="2.5219" ry="9.86235" fill="#FFE6C7"/>
<ellipse cx="193.379" cy="183.761" rx="2.5219" ry="9.86235" fill="#FFE6C7"/>
<ellipse cx="193.379" cy="218.644" rx="2.5219" ry="9.86235" fill="#FFE6C7"/>
<ellipse cx="193.379" cy="253.526" rx="2.5219" ry="9.86235" fill="#FFE6C7"/>
<ellipse cx="193.379" cy="79.1134" rx="2.5219" ry="9.86235" fill="#FFE6C7"/>
<ellipse cx="193.379" cy="44.2309" rx="2.5219" ry="9.86235" fill="#FFE6C7"/>
<ellipse cx="79.2638" cy="148.684" rx="9.45712" ry="9.47368" fill="#FFB26B"/>
</g>
<defs>
<filter id="filter0_d_541_51" x="0.236328" y="0.263184" width="383.763" height="323.789" filterUnits="userSpaceOnUse" color-interpolation-filters="sRGB">
<feFlood flood-opacity="0" result="BackgroundImageFix"/>
<feColorMatrix in="SourceAlpha" type="matrix" values="0 0 0 0 0 0 0 0 0 0 0 0 0 0 0 0 0 0 127 0" result="hardAlpha"/>
<feOffset dy="4"/>
<feGaussianBlur stdDeviation="2"/>
<feComposite in2="hardAlpha" operator="out"/>
<feColorMatrix type="matrix" values="0 0 0 0 0 0 0 0 0 0 0 0 0 0 0 0 0 0 0.25 0"/>
<feBlend mode="normal" in2="BackgroundImageFix" result="effect1_dropShadow_541_51"/>
<feBlend mode="normal" in="SourceGraphic" in2="effect1_dropShadow_541_51" result="shape"/>
</filter>
</defs>
</svg>
