<?xml version="1.0" standalone="no"?>
<!DOCTYPE svg PUBLIC "-//W3C//DTD SVG 20010904//EN"
 "http://www.w3.org/TR/2001/REC-SVG-20010904/DTD/svg10.dtd">
<svg version="1.0" xmlns="http://www.w3.org/2000/svg"
 width="720.000000pt" height="340.000000pt" viewBox="0 0 720.000000 340.000000"
 preserveAspectRatio="xMidYMid meet">

<g transform="translate(0.000000,340.000000) scale(0.100000,-0.100000)"
fill="#000000" stroke="none">
<path d="M0 1700 l0 -1700 3600 0 3600 0 0 1700 0 1700 -3600 0 -3600 0 0
-1700z m2080 205 c0 -8 5 -15 10 -15 6 0 10 -37 10 -90 l0 -90 40 0 40 0 0
105 0 105 55 0 c42 0 55 -3 55 -15 0 -8 5 -15 10 -15 6 0 10 -42 10 -105 l0
-105 -25 0 c-20 0 -25 -5 -25 -25 0 -20 -5 -25 -25 -25 -24 0 -25 -3 -25 -60
0 -52 4 -64 25 -84 14 -14 25 -34 25 -50 l0 -26 -105 0 c-83 0 -105 3 -105 14
0 8 -7 16 -15 20 -8 3 -15 17 -15 31 0 20 5 25 25 25 24 0 25 3 25 61 0 61 -1
62 -50 109 l-50 48 0 101 0 101 55 0 c42 0 55 -3 55 -15z m604 -10 c13 -14 28
-25 35 -25 6 0 11 -7 11 -15 0 -8 5 -15 10 -15 6 0 10 -68 10 -185 l0 -185
-24 0 c-19 0 -25 -6 -28 -27 l-3 -28 -124 -3 -123 -3 -34 35 c-19 19 -34 40
-34 46 0 5 -7 10 -15 10 -13 0 -15 27 -15 184 l0 185 28 3 c21 2 27 8 25 26
-3 22 -2 22 128 22 126 0 131 -1 153 -25z m216 10 c0 -8 5 -15 10 -15 6 0 10
-72 10 -195 l0 -195 70 0 70 0 0 210 0 210 56 0 c34 0 53 -4 49 -10 -3 -6 1
-13 9 -16 14 -5 16 -35 16 -215 l0 -209 -24 0 c-19 0 -25 -6 -28 -27 l-3 -28
-132 -3 c-86 -2 -133 1 -133 8 0 5 -18 28 -40 50 l-40 40 0 205 0 205 55 0
c42 0 55 -3 55 -15z m930 0 c0 -8 5 -15 10 -15 6 0 10 -11 10 -25 0 -20 -5
-25 -25 -25 l-25 0 0 -170 0 -170 40 0 c36 0 40 3 40 25 0 20 5 25 24 25 19 0
25 6 28 28 4 35 46 45 55 13 3 -12 9 -21 14 -21 5 0 9 -36 9 -80 l0 -80 -185
0 c-151 0 -185 3 -185 14 0 8 -7 16 -15 20 -8 3 -15 17 -15 31 0 20 5 25 25
25 l25 0 0 170 c0 107 -4 170 -10 170 -5 0 -10 7 -10 15 0 8 -7 15 -15 15 -9
0 -15 9 -15 25 l0 25 110 0 c91 0 110 -3 110 -15z m575 -30 l45 -46 0 -179 0
-180 -24 0 c-19 0 -25 -6 -28 -27 l-3 -28 -132 -3 c-86 -2 -133 1 -133 8 0 5
-18 28 -40 50 l-40 40 0 180 0 180 25 0 c20 0 25 5 25 25 l0 25 130 0 129 0
46 -45z m405 32 c0 -8 11 -20 25 -27 14 -7 25 -19 25 -27 0 -7 7 -13 15 -13 9
0 15 -9 15 -25 0 -24 -3 -25 -55 -25 -42 0 -55 3 -55 15 0 8 -7 15 -15 15 -8
0 -15 5 -15 10 0 6 -28 10 -65 10 l-65 0 0 -40 c0 -29 4 -40 15 -40 8 0 15 -5
15 -11 0 -19 33 -38 66 -39 21 0 37 -8 50 -25 10 -14 24 -25 31 -25 7 0 13 -4
13 -9 0 -5 18 -28 40 -50 35 -35 40 -46 40 -85 0 -41 -2 -45 -27 -48 -22 -2
-29 -9 -31 -30 l-3 -28 -130 0 c-79 0 -129 4 -129 10 0 13 -37 50 -50 50 -5 0
-10 7 -10 15 0 8 -4 15 -10 15 -5 0 -10 11 -10 25 0 23 4 25 45 25 36 0 51 -5
69 -25 20 -21 32 -25 85 -25 l61 0 0 35 c0 19 -4 35 -10 35 -5 0 -10 5 -10 10
0 23 -41 50 -75 50 -24 0 -35 5 -35 15 0 8 -5 15 -11 15 -14 0 -39 25 -39 39
0 6 -5 11 -11 11 -6 0 -24 13 -40 29 -24 25 -29 37 -29 80 0 48 2 51 25 51 20
0 25 5 25 25 l0 25 135 0 c106 0 135 -3 135 -13z m490 -2 c0 -8 7 -15 15 -15
11 0 15 -12 15 -50 l0 -50 -55 0 c-42 0 -55 3 -55 15 0 8 -7 15 -15 15 -8 0
-15 5 -15 10 0 6 -18 10 -40 10 l-40 0 0 -65 0 -65 70 0 c56 0 70 -3 70 -15 0
-8 5 -15 10 -15 6 0 10 -11 10 -25 0 -23 -3 -24 -77 -27 l-78 -3 -3 -62 -3
-63 41 0 c36 0 40 2 40 25 0 24 3 25 55 25 40 0 55 -4 55 -14 0 -8 7 -17 16
-20 11 -4 14 -18 12 -53 l-3 -48 -179 -3 c-174 -2 -180 -2 -200 20 -30 32 -27
62 7 66 l27 3 0 170 c0 144 -2 169 -15 169 -8 0 -15 6 -15 14 0 8 -6 16 -14
19 -12 5 -14 21 -7 45 1 1 84 2 186 2 158 0 185 -2 185 -15z"/>
<path d="M2490 1838 c0 -2 -2 -78 -3 -171 l-2 -167 68 0 67 0 0 170 0 170 -65
0 c-36 0 -65 -1 -65 -2z"/>
<path d="M4180 1670 l0 -170 70 0 70 0 0 170 0 170 -70 0 -70 0 0 -170z"/>
</g>
</svg>
