<?xml version="1.0" standalone="no"?>
<!DOCTYPE svg PUBLIC "-//W3C//DTD SVG 20010904//EN"
 "http://www.w3.org/TR/2001/REC-SVG-20010904/DTD/svg10.dtd">
<svg version="1.0" xmlns="http://www.w3.org/2000/svg"
 width="683.000000pt" height="360.000000pt" viewBox="0 0 683.000000 360.000000"
 preserveAspectRatio="xMidYMid meet">

<g transform="translate(0.000000,360.000000) scale(0.100000,-0.100000)"
fill="#000000" stroke="none">
<path d="M0 1800 l0 -1800 3415 0 3415 0 0 1800 0 1800 -3415 0 -3415 0 0
-1800z m5962 573 c2 -10 3 -130 3 -268 l0 -250 -93 -3 c-89 -3 -93 -2 -101 21
-5 13 -6 42 -2 64 5 23 4 48 -1 57 -5 9 -5 23 0 33 5 10 8 27 6 39 -6 37 -11
313 -6 319 3 3 47 5 98 5 79 0 92 -2 96 -17z m-1130 -73 c3 0 5 -8 3 -17 -1
-10 2 -24 8 -30 6 -9 6 -13 -1 -13 -7 0 -8 -10 -3 -27 4 -16 5 -41 2 -58 l-6
-30 -95 -3 -95 -3 -2 88 c-1 48 2 90 7 93 8 5 91 5 182 0z m-3796 -285 c-3 -8
-2 -16 2 -19 4 -2 7 -77 6 -165 l-1 -161 87 0 c59 0 91 4 98 13 11 12 13 46
11 200 0 44 2 81 5 84 3 3 1 15 -5 25 -6 12 -7 24 -2 29 5 5 50 10 101 12 90
3 92 2 92 -19 0 -13 5 -26 10 -29 6 -4 7 -14 2 -23 -4 -9 -7 -107 -6 -217 3
-263 5 -255 -56 -255 l-48 0 6 -45 5 -45 -198 2 -198 3 -2 43 -2 42 142 0
c156 0 155 0 155 61 l0 29 -144 0 c-156 0 -153 -1 -151 58 l1 32 -50 0 -51 0
1 161 c0 88 -3 162 -8 165 -4 3 -4 13 1 22 8 15 23 17 106 14 78 -3 96 -6 91
-17z m893 16 c57 -1 72 -4 68 -14 -3 -8 -1 -20 3 -27 5 -8 4 -22 -1 -32 -8
-15 -23 -18 -105 -18 -80 0 -95 -2 -91 -15 4 -8 3 -16 -2 -19 -4 -3 -4 -31 -1
-63 6 -53 5 -119 -2 -154 -4 -20 181 -26 194 -7 4 7 8 60 7 118 -2 153 -6 140
49 140 l48 0 2 -97 c1 -54 -1 -115 -4 -135 -6 -37 -6 -38 -51 -38 -43 0 -45
-1 -41 -25 3 -14 2 -28 -3 -31 -4 -2 -6 -11 -2 -19 4 -13 -16 -15 -140 -15
-157 0 -154 -1 -152 58 l1 32 -51 0 -50 0 1 123 c1 67 2 128 3 135 0 7 16 12
40 12 46 0 71 22 54 49 -21 34 0 46 79 44 40 -1 106 -2 147 -2z m515 0 c12 -1
16 -6 13 -16 -4 -8 -3 -16 1 -19 4 -2 7 -77 6 -165 l-2 -161 94 0 c83 0 93 2
99 20 3 10 5 76 4 144 -2 69 0 128 4 132 3 4 2 15 -3 25 -17 32 -3 44 48 42
26 -1 70 -2 97 -2 l50 -1 -1 -158 c0 -221 4 -202 -49 -202 -44 0 -45 -1 -46
-32 -1 -18 -1 -39 0 -45 2 -10 -43 -13 -192 -13 -211 0 -204 -2 -202 58 l1 32
-50 0 -51 0 0 180 0 179 50 3 c45 3 76 3 129 -1z m1525 0 c7 -5 11 -13 7 -19
-3 -6 -2 -13 3 -16 7 -5 8 -71 1 -96 -3 -8 1 -86 5 -106 2 -10 4 -22 4 -26 1
-5 43 -8 95 -8 l95 0 0 98 c1 53 2 104 2 112 0 8 -1 24 -3 35 -3 19 3 20 96
23 82 2 98 0 93 -12 -3 -8 -3 -17 1 -20 3 -4 6 -58 7 -121 l1 -115 -48 0 c-31
0 -48 -4 -49 -12 -1 -7 -2 -17 -4 -23 -1 -5 -3 -20 -3 -32 -2 -20 -7 -23 -47
-23 -44 0 -45 -1 -46 -32 -1 -18 -1 -39 0 -46 2 -10 -21 -12 -96 -10 -107 3
-99 -2 -102 66 -1 21 -4 22 -96 22 -103 0 -98 3 -97 -62 l1 -28 -93 0 c-68 0
-97 4 -105 14 -7 8 -8 17 -3 20 5 3 7 17 4 31 -4 22 -9 25 -51 25 -26 0 -50 2
-53 5 -3 3 -2 23 2 45 l7 40 -48 0 c-27 0 -49 3 -50 8 0 4 -2 16 -4 26 -4 20
-8 98 -5 106 6 24 7 91 0 95 -5 3 -7 12 -3 20 4 12 26 15 103 15 87 0 99 -2
99 -17 0 -10 1 -37 3 -61 2 -23 0 -42 -4 -42 -4 0 -5 -15 -2 -32 2 -18 6 -51
7 -73 l2 -40 95 0 94 0 1 110 c1 61 -2 115 -6 120 -17 23 9 34 86 38 44 1 82
4 85 5 3 1 11 -2 19 -7z m861 -1 c9 0 10 -21 11 -155 1 -92 0 -120 -1 -182 -1
-28 1 -56 4 -62 4 -5 2 -12 -3 -16 -6 -3 -8 -12 -4 -21 5 -13 -9 -14 -93 -12
l-99 3 -1 142 c-1 79 -4 149 -7 157 -4 9 -2 18 3 21 5 3 7 12 3 20 -3 10 -20
15 -55 15 -45 0 -49 2 -43 20 4 12 2 27 -4 33 -13 16 -2 34 23 38 14 3 218 2
266 -1z m654 1 c12 -1 16 -6 13 -16 -4 -8 -1 -17 4 -21 6 -3 8 -17 4 -31 -5
-22 -3 -24 22 -23 75 5 70 17 71 -150 1 -83 4 -154 7 -159 3 -5 1 -12 -4 -16
-6 -3 -8 -12 -4 -21 5 -13 -9 -14 -93 -12 -98 3 -99 3 -101 28 -4 63 -4 98 0
135 2 22 1 66 -3 98 -3 32 -3 60 1 63 5 3 6 11 2 19 -7 20 -193 22 -194 3 0
-7 -1 -88 -1 -180 l-2 -168 -92 0 c-67 0 -95 4 -103 14 -8 10 -9 16 -1 21 6 3
8 11 5 16 -5 7 -6 67 -4 339 0 8 -1 24 -3 35 -3 18 4 20 77 25 66 4 326 5 399
1z m482 -361 l0 -90 -92 0 c-67 0 -95 4 -103 14 -7 8 -8 17 -3 20 5 3 7 20 3
37 -3 17 -5 49 -3 70 l4 39 97 0 96 0 1 -90z"/>
</g>
</svg>
