<svg width="298" height="250" viewBox="0 0 298 250" fill="none" xmlns="http://www.w3.org/2000/svg">
<rect width="298" height="250" rx="10" fill="black"/>
<path d="M8.5 46C8.5 41.3056 12.3056 37.5 17 37.5C21.6944 37.5 25.5 41.3056 25.5 46V92C25.5 96.6944 21.6944 100.5 17 100.5C12.3056 100.5 8.5 96.6944 8.5 92V46Z" fill="white"/>
<path d="M275 172C275 167.306 278.806 163.5 283.5 163.5C288.194 163.5 292 167.306 292 172V218C292 222.694 288.194 226.5 283.5 226.5C278.806 226.5 275 222.694 275 218V172Z" fill="white"/>
<ellipse cx="150" cy="90.0384" rx="2" ry="7.80769" fill="white"/>
<ellipse cx="150" cy="117.654" rx="2" ry="7.80769" fill="white"/>
<ellipse cx="150" cy="145.269" rx="2" ry="7.80769" fill="white"/>
<ellipse cx="150" cy="172.884" rx="2" ry="7.80769" fill="white"/>
<ellipse cx="150" cy="200.5" rx="2" ry="7.80769" fill="white"/>
<ellipse cx="150" cy="62.423" rx="2" ry="7.80769" fill="white"/>
<ellipse cx="150" cy="34.8077" rx="2" ry="7.80769" fill="white"/>
<circle cx="59.5" cy="117.5" r="7.5" fill="#D7D7D7"/>
<path d="M115.184 222.59C115.755 220.831 118.245 220.831 118.816 222.59C119.072 223.377 119.805 223.91 120.633 223.91C122.483 223.91 123.252 226.277 121.755 227.365C121.086 227.851 120.806 228.713 121.061 229.5C121.633 231.26 119.619 232.723 118.123 231.635C117.453 231.149 116.547 231.149 115.877 231.635C114.381 232.723 112.367 231.26 112.939 229.5C113.194 228.713 112.914 227.851 112.245 227.365C110.748 226.277 111.517 223.91 113.367 223.91C114.195 223.91 114.928 223.377 115.184 222.59Z" fill="#FFF7F7"/>
</svg>
