<svg width="376" height="316" viewBox="0 0 376 316" fill="none" xmlns="http://www.w3.org/2000/svg">
<rect width="375.763" height="315.789" rx="10" fill="#7AC7C4"/>
<path d="M10.7188 58.0865C10.7188 52.1671 15.5174 47.3684 21.4368 47.3684C27.3562 47.3684 32.1549 52.1671 32.1549 58.0865V116.229C32.1549 122.149 27.3562 126.947 21.4368 126.947C15.5174 126.947 10.7188 122.149 10.7188 116.229V58.0865Z" fill="#D46077"/>
<path d="M346.762 217.244C346.762 211.325 351.56 206.526 357.48 206.526C363.399 206.526 368.198 211.325 368.198 217.244V275.387C368.198 281.307 363.399 286.105 357.48 286.105C351.56 286.105 346.762 281.307 346.762 275.387V217.244Z" fill="#D46077"/>
<ellipse cx="189.144" cy="113.733" rx="2.5219" ry="9.86235" fill="#3F4F64"/>
<ellipse cx="189.144" cy="148.615" rx="2.5219" ry="9.86235" fill="#3F4F64"/>
<ellipse cx="189.144" cy="183.498" rx="2.5219" ry="9.86235" fill="#3F4F64"/>
<ellipse cx="189.144" cy="218.38" rx="2.5219" ry="9.86235" fill="#3F4F64"/>
<ellipse cx="189.144" cy="253.263" rx="2.5219" ry="9.86235" fill="#3F4F64"/>
<ellipse cx="189.144" cy="78.8501" rx="2.5219" ry="9.86235" fill="#3F4F64"/>
<ellipse cx="189.144" cy="43.9676" rx="2.5219" ry="9.86235" fill="#3F4F64"/>
<ellipse cx="75.0274" cy="148.421" rx="9.45712" ry="9.47368" fill="#384259"/>
</svg>
