<svg width="377" height="317" viewBox="0 0 377 317" fill="none" xmlns="http://www.w3.org/2000/svg">
<rect x="0.46582" y="0.263184" width="375.763" height="315.789" rx="10" fill="black"/>
<path d="M11.1846 58.3497C11.1846 52.4303 15.9832 47.6316 21.9026 47.6316C27.8221 47.6316 32.6207 52.4302 32.6207 58.3497V116.492C32.6207 122.412 27.8221 127.211 21.9026 127.211C15.9832 127.211 11.1846 122.412 11.1846 116.492V58.3497Z" fill="white"/>
<path d="M347.227 217.508C347.227 211.588 352.026 206.789 357.946 206.789C363.865 206.789 368.664 211.588 368.664 217.508V275.65C368.664 281.57 363.865 286.368 357.946 286.368C352.026 286.368 347.227 281.57 347.227 275.65V217.508Z" fill="white"/>
<ellipse cx="189.608" cy="113.996" rx="2.5219" ry="9.86235" fill="white"/>
<ellipse cx="189.608" cy="148.878" rx="2.5219" ry="9.86235" fill="white"/>
<ellipse cx="189.608" cy="183.761" rx="2.5219" ry="9.86235" fill="white"/>
<ellipse cx="189.608" cy="218.644" rx="2.5219" ry="9.86235" fill="white"/>
<ellipse cx="189.608" cy="253.526" rx="2.5219" ry="9.86235" fill="white"/>
<ellipse cx="189.608" cy="79.1136" rx="2.5219" ry="9.86235" fill="white"/>
<ellipse cx="189.608" cy="44.2309" rx="2.5219" ry="9.86235" fill="white"/>
<ellipse cx="75.4932" cy="148.684" rx="9.45712" ry="9.47368" fill="#D7D7D7"/>
</svg>
