<svg width="91" height="36" viewBox="0 0 91 36" fill="none" xmlns="http://www.w3.org/2000/svg">
<rect width="91" height="36" rx="15" fill="#76BFBD"/>
<path d="M16.96 24.112C16.1813 24.112 15.4773 23.9787 14.848 23.712C14.2293 23.4453 13.7387 23.0613 13.376 22.56C13.0133 22.0587 12.8267 21.4667 12.816 20.784H15.216C15.248 21.2427 15.408 21.6053 15.696 21.872C15.9947 22.1387 16.4 22.272 16.912 22.272C17.4347 22.272 17.8453 22.1493 18.144 21.904C18.4427 21.648 18.592 21.3173 18.592 20.912C18.592 20.5813 18.4907 20.3093 18.288 20.096C18.0853 19.8827 17.8293 19.7173 17.52 19.6C17.2213 19.472 16.8053 19.3333 16.272 19.184C15.5467 18.9707 14.9547 18.7627 14.496 18.56C14.048 18.3467 13.6587 18.032 13.328 17.616C13.008 17.1893 12.848 16.624 12.848 15.92C12.848 15.2587 13.0133 14.6827 13.344 14.192C13.6747 13.7013 14.1387 13.328 14.736 13.072C15.3333 12.8053 16.016 12.672 16.784 12.672C17.936 12.672 18.8693 12.9547 19.584 13.52C20.3093 14.0747 20.7093 14.8533 20.784 15.856H18.32C18.2987 15.472 18.1333 15.1573 17.824 14.912C17.5253 14.656 17.1253 14.528 16.624 14.528C16.1867 14.528 15.8347 14.64 15.568 14.864C15.312 15.088 15.184 15.4133 15.184 15.84C15.184 16.1387 15.28 16.3893 15.472 16.592C15.6747 16.784 15.92 16.944 16.208 17.072C16.5067 17.1893 16.9227 17.328 17.456 17.488C18.1813 17.7013 18.7733 17.9147 19.232 18.128C19.6907 18.3413 20.0853 18.6613 20.416 19.088C20.7467 19.5147 20.912 20.0747 20.912 20.768C20.912 21.3653 20.7573 21.92 20.448 22.432C20.1387 22.944 19.6853 23.3547 19.088 23.664C18.4907 23.9627 17.7813 24.112 16.96 24.112ZM31.094 19.376C31.094 19.696 31.0727 19.984 31.03 20.24H24.55C24.6033 20.88 24.8273 21.3813 25.222 21.744C25.6167 22.1067 26.102 22.288 26.678 22.288C27.51 22.288 28.102 21.9307 28.454 21.216H30.87C30.614 22.0693 30.1233 22.7733 29.398 23.328C28.6727 23.872 27.782 24.144 26.726 24.144C25.8727 24.144 25.1047 23.9573 24.422 23.584C23.75 23.2 23.222 22.6613 22.838 21.968C22.4647 21.2747 22.278 20.4747 22.278 19.568C22.278 18.6507 22.4647 17.8453 22.838 17.152C23.2113 16.4587 23.734 15.9253 24.406 15.552C25.078 15.1787 25.8513 14.992 26.726 14.992C27.5687 14.992 28.3207 15.1733 28.982 15.536C29.654 15.8987 30.1713 16.416 30.534 17.088C30.9073 17.7493 31.094 18.512 31.094 19.376ZM28.774 18.736C28.7633 18.16 28.5553 17.7013 28.15 17.36C27.7447 17.008 27.2487 16.832 26.662 16.832C26.1073 16.832 25.638 17.0027 25.254 17.344C24.8807 17.6747 24.6513 18.1387 24.566 18.736H28.774ZM37.641 15.008C38.697 15.008 39.5503 15.344 40.201 16.016C40.8517 16.6773 41.177 17.6053 41.177 18.8V24H38.937V19.104C38.937 18.4 38.761 17.8613 38.409 17.488C38.057 17.104 37.577 16.912 36.969 16.912C36.3503 16.912 35.8597 17.104 35.497 17.488C35.145 17.8613 34.969 18.4 34.969 19.104V24H32.729V15.136H34.969V16.24C35.2677 15.856 35.6463 15.5573 36.105 15.344C36.5743 15.12 37.0863 15.008 37.641 15.008ZM42.7311 19.536C42.7311 18.64 42.9071 17.8453 43.2591 17.152C43.6218 16.4587 44.1125 15.9253 44.7311 15.552C45.3498 15.1787 46.0378 14.992 46.7951 14.992C47.3711 14.992 47.9205 15.12 48.4431 15.376C48.9658 15.6213 49.3818 15.952 49.6911 16.368V12.16H51.9631V24H49.6911V22.688C49.4138 23.1253 49.0245 23.4773 48.5231 23.744C48.0218 24.0107 47.4405 24.144 46.7791 24.144C46.0325 24.144 45.3498 23.952 44.7311 23.568C44.1125 23.184 43.6218 22.6453 43.2591 21.952C42.9071 21.248 42.7311 20.4427 42.7311 19.536ZM49.7071 19.568C49.7071 19.024 49.6005 18.56 49.3871 18.176C49.1738 17.7813 48.8858 17.4827 48.5231 17.28C48.1605 17.0667 47.7711 16.96 47.3551 16.96C46.9391 16.96 46.5551 17.0613 46.2031 17.264C45.8511 17.4667 45.5631 17.7653 45.3391 18.16C45.1258 18.544 45.0191 19.0027 45.0191 19.536C45.0191 20.0693 45.1258 20.5387 45.3391 20.944C45.5631 21.3387 45.8511 21.6427 46.2031 21.856C46.5658 22.0693 46.9498 22.176 47.3551 22.176C47.7711 22.176 48.1605 22.0747 48.5231 21.872C48.8858 21.6587 49.1738 21.36 49.3871 20.976C49.6005 20.5813 49.7071 20.112 49.7071 19.568Z" fill="white"/>
<path d="M78.6856 15.6527L66.315 9.28584C65.8268 9.03573 65.2755 8.94668 64.7364 9.03085C64.1972 9.11502 63.6964 9.36831 63.3022 9.75618C62.908 10.1441 62.6396 10.6476 62.5336 11.1983C62.4276 11.7489 62.4891 12.3198 62.7099 12.8331L64.8305 17.7173C64.8787 17.8354 64.9034 17.9622 64.9034 18.0902C64.9034 18.2183 64.8787 18.3451 64.8305 18.4631L62.7099 23.3474C62.5302 23.7628 62.4543 24.2178 62.4889 24.6711C62.5236 25.1244 62.6678 25.5616 62.9083 25.943C63.1489 26.3243 63.4782 26.6378 63.8664 26.8548C64.2545 27.0718 64.6892 27.1856 65.131 27.1857C65.5447 27.1814 65.9523 27.082 66.3239 26.8946L78.6945 20.5278C79.1333 20.3006 79.5021 19.9523 79.7598 19.5219C80.0176 19.0915 80.154 18.5958 80.154 18.0902C80.154 17.5846 80.0176 17.089 79.7598 16.6585C79.5021 16.2281 79.1333 15.8799 78.6945 15.6527H78.6856ZM77.8992 18.8997L65.5286 25.2665C65.3662 25.3468 65.1838 25.3741 65.0058 25.3446C64.8279 25.3152 64.663 25.2304 64.5332 25.1018C64.4034 24.9731 64.3149 24.8067 64.2796 24.6248C64.2443 24.4429 64.2639 24.2542 64.3357 24.0841L66.4476 19.1999C66.4749 19.1347 66.4985 19.0678 66.5183 18.9998H72.6064C72.8407 18.9998 73.0655 18.9039 73.2312 18.7334C73.3969 18.5628 73.49 18.3315 73.49 18.0902C73.49 17.849 73.3969 17.6177 73.2312 17.4471C73.0655 17.2765 72.8407 17.1807 72.6064 17.1807H66.5183C66.4985 17.1126 66.4749 17.0458 66.4476 16.9806L64.3357 12.0963C64.2639 11.9262 64.2443 11.7376 64.2796 11.5557C64.3149 11.3738 64.4034 11.2073 64.5332 11.0787C64.663 10.95 64.8279 10.8653 65.0058 10.8358C65.1838 10.8064 65.3662 10.8336 65.5286 10.9139L77.8992 17.2807C78.044 17.3571 78.1654 17.473 78.2502 17.6159C78.3351 17.7587 78.3799 17.9228 78.3799 18.0902C78.3799 18.2576 78.3351 18.4218 78.2502 18.5646C78.1654 18.7074 78.044 18.8234 77.8992 18.8997Z" fill="white"/>
</svg>
