<svg width="40" height="40" viewBox="0 0 40 40" fill="none" xmlns="http://www.w3.org/2000/svg">
<path d="M33.75 23.669C30.3038 23.669 27.5 26.4731 27.5 29.9203C27.5 33.3671 30.3038 36.1716 33.75 36.1716C37.1962 36.1716 40 33.3671 40 29.9203C40 26.4731 37.1962 23.669 33.75 23.669ZM33.75 33.0459C32.0269 33.0459 30.625 31.6436 30.625 29.9203C30.625 28.1966 32.0269 26.7947 33.75 26.7947C35.4729 26.7947 36.875 28.1966 36.875 29.9203C36.875 31.6436 35.4729 33.0459 33.75 33.0459ZM24.3633 30.5442L24.3662 30.5414L9.17531 15.3099C9.76244 13.0011 11.2998 10.5939 13.7686 8.12465C17.1086 4.78359 20.9165 3.09237 24.5659 3.09237C27.6858 3.09237 30.6899 4.32843 33.1875 6.82651C37.0847 10.7248 37.8906 15.8679 35.7095 20.7579C36.7344 20.9771 37.715 21.3675 38.6101 21.9129C39.4183 20.0526 39.8821 18.1252 39.9795 16.1719C40.1931 11.8895 38.5657 7.7857 35.3972 4.61637C32.2276 1.44571 28.1206 -0.18837 23.8319 0.0172971C19.4509 0.22609 15.2073 2.26526 11.5588 5.91438C7.65544 9.81849 5.71138 13.7532 5.78 17.6097C5.7975 18.6135 6.01775 19.5625 6.23044 20.359C7.665 25.7256 7.42669 26.1585 4.40963 29.176L0.9135 32.6518C-0.3045 33.8703 -0.3045 35.8534 0.9135 37.0719L2.92719 39.086C3.53681 39.6955 4.33756 40 5.13788 40C5.93725 40 6.736 39.6965 7.3435 39.0892L10.8359 35.6168L10.8403 35.6124C14.2502 32.2023 14.3833 32.0692 19.236 33.3666C20.4543 33.6926 21.5896 33.8462 22.7089 33.8347C23.5124 33.8269 24.3156 33.7414 25.1149 33.5824C24.7046 32.6158 24.4607 31.5867 24.3937 30.5386C24.3837 30.5405 24.3737 30.5422 24.3633 30.5442ZM13.4001 29.7912C11.7149 30.3179 10.4881 31.5447 8.63156 33.4015L5.13694 36.8757L3.12006 34.8653L6.61619 31.3897C8.54544 29.4601 9.66456 28.0723 10.0524 26.2702C10.4126 24.5977 10.1016 22.7878 9.34306 19.9037L19.6569 30.2454C16.9289 29.5335 15.0906 29.263 13.4001 29.7912Z" fill="#7AC7C4"/>
</svg>
