<svg width="40" height="40" viewBox="0 0 40 40" fill="none" xmlns="http://www.w3.org/2000/svg">
<path d="M1.69747 13.909L5.03085 37.6057C5.12479 38.2735 5.42492 38.8813 5.87737 39.3202C6.32981 39.759 6.90495 40 7.49954 40H32.4999C33.0945 40 33.6696 39.7589 34.122 39.3201C34.5745 38.8813 34.8746 38.2735 34.9686 37.6057L38.302 13.909C38.6478 11.4522 36.2363 9.70924 34.4276 11.1083L27.805 16.2306L21.7676 9.36365C20.7914 8.25313 19.2084 8.25313 18.232 9.36365L12.1946 16.2306L5.57202 11.1083C3.76366 9.70924 1.35163 11.4518 1.69747 13.909ZM11.0938 22.2567C11.5749 22.6289 12.1552 22.7985 12.7345 22.7363C13.3138 22.6741 13.8558 22.384 14.2673 21.916L19.9997 15.3959L25.7321 21.9158C26.1436 22.3839 26.6857 22.674 27.265 22.7361C27.8443 22.7983 28.4245 22.6287 28.9057 22.2565L32.4497 19.5155L30.368 34.3128H9.63141L7.54988 19.5157L11.0938 22.2567Z" fill="#7AC7C4"/>
<path d="M20 5.68719C21.3808 5.68719 22.5001 4.41407 22.5001 2.8436C22.5001 1.27312 21.3808 0 20 0C18.6193 0 17.5 1.27312 17.5 2.8436C17.5 4.41407 18.6193 5.68719 20 5.68719Z" fill="#7AC7C4"/>
<path d="M37.5 8.5307C38.8808 8.5307 40.0001 7.25758 40.0001 5.6871C40.0001 4.11663 38.8808 2.84351 37.5 2.84351C36.1193 2.84351 35 4.11663 35 5.6871C35 7.25758 36.1193 8.5307 37.5 8.5307Z" fill="#7AC7C4"/>
<path d="M2.50003 8.5307C3.88076 8.5307 5.00006 7.25758 5.00006 5.6871C5.00006 4.11663 3.88076 2.84351 2.50003 2.84351C1.1193 2.84351 0 4.11663 0 5.6871C0 7.25758 1.1193 8.5307 2.50003 8.5307Z" fill="#7AC7C4"/>
</svg>
