<svg width="30" height="31" viewBox="0 0 30 31" fill="none" xmlns="http://www.w3.org/2000/svg">
<path d="M28.125 5.66912H1.875C0.8125 5.66912 0 4.52206 0 3.02206C0 1.52206 0.8125 0.375 1.875 0.375H28.125C29.1875 0.375 30 1.52206 30 3.02206C30 4.52206 29.1875 5.66912 28.125 5.66912ZM28.125 18.0221H1.875C0.8125 18.0221 0 16.875 0 15.375C0 13.875 0.8125 12.7279 1.875 12.7279H28.125C29.1875 12.7279 30 13.875 30 15.375C30 16.875 29.1875 18.0221 28.125 18.0221ZM28.125 30.375H1.875C0.8125 30.375 0 29.2279 0 27.7279C0 26.2279 0.8125 25.0809 1.875 25.0809H28.125C29.1875 25.0809 30 26.2279 30 27.7279C30 29.2279 29.1875 30.375 28.125 30.375Z" fill="#7AC7C4"/>
</svg>
