<svg xmlns="http://www.w3.org/2000/svg" version="1.1" xmlns:xlink="http://www.w3.org/1999/xlink" xmlns:svgjs="http://svgjs.com/svgjs" width="512" height="512" x="0" y="0" viewBox="0 0 682.667 682.667" style="enable-background:new 0 0 512 512" xml:space="preserve" class=""><g><defs><clipPath id="a" clipPathUnits="userSpaceOnUse"><path d="M0 512h512V0H0Z" fill="#7AC7C4" data-original="#7AC7C4"></path></clipPath></defs><g clip-path="url(#a)" transform="matrix(1.33333 0 0 -1.33333 0 682.667)"><path d="M0 0c0-53.311-43.217-96.528-96.528-96.528-53.311 0-96.528 43.217-96.528 96.528 0 53.311 43.217 96.528 96.528 96.528C-43.217 96.528 0 53.311 0 0Z" style="stroke-width:30;stroke-linecap:butt;stroke-linejoin:miter;stroke-miterlimit:10;stroke-dasharray:none;stroke-opacity:1" transform="translate(271.298 383.921)" fill="none" stroke="#7AC7C4" stroke-width="30" stroke-linecap="butt" stroke-linejoin="miter" stroke-miterlimit="10" stroke-dasharray="none" stroke-opacity="" data-original="#7AC7C4" class=""></path><path d="M0 0c-17.875 36.25-45.489 60.501-82.293 74.686" style="stroke-width:30;stroke-linecap:butt;stroke-linejoin:miter;stroke-miterlimit:10;stroke-dasharray:none;stroke-opacity:1" transform="translate(313.404 230.852)" fill="none" stroke="#7AC7C4" stroke-width="30" stroke-linecap="butt" stroke-linejoin="miter" stroke-miterlimit="10" stroke-dasharray="none" stroke-opacity="" data-original="#7AC7C4" class=""></path><path d="M0 0c-62.152-23.957-103.426-87.501-103.426-163.745v-110.243h369.624" style="stroke-width:30;stroke-linecap:butt;stroke-linejoin:miter;stroke-miterlimit:10;stroke-dasharray:none;stroke-opacity:1" transform="translate(118.426 305.538)" fill="none" stroke="#7AC7C4" stroke-width="30" stroke-linecap="butt" stroke-linejoin="miter" stroke-miterlimit="10" stroke-dasharray="none" stroke-opacity="" data-original="#7AC7C4" class=""></path><path d="M0 0c15.413 10.423 33.998 16.509 54.005 16.509 53.311 0 96.528-43.217 96.528-96.528 0-53.31-43.217-96.527-96.528-96.527-7.418 0-14.641.836-21.578 2.421" style="stroke-width:30;stroke-linecap:butt;stroke-linejoin:miter;stroke-miterlimit:10;stroke-dasharray:none;stroke-opacity:1" transform="translate(228.775 463.94)" fill="none" stroke="#7AC7C4" stroke-width="30" stroke-linecap="butt" stroke-linejoin="miter" stroke-miterlimit="10" stroke-dasharray="none" stroke-opacity="" data-original="#7AC7C4" class=""></path><path d="M0 0c-17.527 24.424-39.447 40.543-67.694 51.429" style="stroke-width:30;stroke-linecap:butt;stroke-linejoin:miter;stroke-miterlimit:10;stroke-dasharray:none;stroke-opacity:1" transform="translate(406.813 254.11)" fill="none" stroke="#7AC7C4" stroke-width="30" stroke-linecap="butt" stroke-linejoin="miter" stroke-miterlimit="10" stroke-dasharray="none" stroke-opacity="" data-original="#7AC7C4" class=""></path><path d="M0 0c0-62.063-50.312-112.375-112.375-112.375-62.064 0-112.376 50.312-112.376 112.375s50.312 112.375 112.376 112.375C-50.312 112.375 0 62.063 0 0Z" style="stroke-width:30;stroke-linecap:butt;stroke-linejoin:miter;stroke-miterlimit:10;stroke-dasharray:none;stroke-opacity:1" transform="translate(497 143.926)" fill="none" stroke="#7AC7C4" stroke-width="30" stroke-linecap="butt" stroke-linejoin="miter" stroke-miterlimit="10" stroke-dasharray="none" stroke-opacity="" data-original="#7AC7C4" class=""></path><path d="M0 0v-115.108" style="stroke-width:30;stroke-linecap:butt;stroke-linejoin:miter;stroke-miterlimit:10;stroke-dasharray:none;stroke-opacity:1" transform="translate(384.625 201.48)" fill="none" stroke="#7AC7C4" stroke-width="30" stroke-linecap="butt" stroke-linejoin="miter" stroke-miterlimit="10" stroke-dasharray="none" stroke-opacity="" data-original="#7AC7C4" class=""></path><path d="M0 0h-115.108" style="stroke-width:30;stroke-linecap:butt;stroke-linejoin:miter;stroke-miterlimit:10;stroke-dasharray:none;stroke-opacity:1" transform="translate(442.178 143.926)" fill="none" stroke="#7AC7C4" stroke-width="30" stroke-linecap="butt" stroke-linejoin="miter" stroke-miterlimit="10" stroke-dasharray="none" stroke-opacity="" data-original="#7AC7C4" class=""></path></g></g></svg>
