<svg width="512" height="512" viewBox="0 0 512 512" fill="none" xmlns="http://www.w3.org/2000/svg">
<path d="M307 472H60.6931C52.1551 472 47.0041 467.234 44.6941 464.394C40.7051 459.489 39.1611 453.104 40.4581 446.875C61.2131 347.18 149.149 274.354 250.698 271.898C254.249 272.035 257.803 272.035 261.354 271.896C292.474 272.626 322.404 279.728 350.398 293.036C360.375 297.776 372.305 293.535 377.047 283.558C381.789 273.582 377.547 261.651 367.57 256.909C357.8 252.26 347.749 248.225 337.477 244.828C370.56 219.996 392 180.455 392 136C392 61.01 330.991 0 256 0C181.009 0 120 61.01 120 136C120 180.504 141.488 220.084 174.633 244.911C144.265 254.909 115.77 270.466 90.8301 290.98C45.0981 328.597 13.3011 381.066 1.2981 438.723C-2.4639 456.789 2.0431 475.345 13.6611 489.631C25.2221 503.847 42.3651 512 60.6931 512H307C318.046 512 327 503.046 327 492C327 480.954 318.046 472 307 472ZM160 136C160 83.065 203.065 40 256 40C308.935 40 352 83.065 352 136C352 187.299 311.555 229.329 260.878 231.877C257.639 231.817 254.399 231.818 251.16 231.879C200.465 229.35 160 187.312 160 136ZM512 417C512 428.046 503.046 437 492 437H437V492C437 503.046 428.046 512 417 512C405.954 512 397 503.046 397 492V437H342C330.954 437 322 428.046 322 417C322 405.954 330.954 397 342 397H397V342C397 330.954 405.954 322 417 322C428.046 322 437 330.954 437 342V397H492C503.046 397 512 405.954 512 417Z" fill="#7AC7C4"/>
</svg>
