<svg width="256" height="256" viewBox="0 0 256 256" fill="none" xmlns="http://www.w3.org/2000/svg">
<path d="M181.333 117.333C184.96 117.333 188.48 117.759 192 118.293V80.8527C192 72.3193 186.987 64.6393 179.2 61.3327L120.533 35.7327C115.093 33.386 108.907 33.386 103.467 35.7327L44.8 61.3327C37.0133 64.746 32 72.426 32 80.8527V119.253C32 167.679 66.1333 213.013 112 223.999C117.867 222.613 123.52 220.586 129.067 218.133C121.707 207.679 117.333 194.986 117.333 181.333C117.333 146.026 146.027 117.333 181.333 117.333Z" fill="#7AC7C4"/>
<path d="M181.333 138.666C157.76 138.666 138.667 157.759 138.667 181.333C138.667 204.906 157.76 223.999 181.333 223.999C204.907 223.999 224 204.906 224 181.333C224 157.759 204.907 138.666 181.333 138.666ZM181.333 153.386C187.947 153.386 193.28 158.826 193.28 165.333C193.28 171.839 187.84 177.279 181.333 177.279C174.827 177.279 169.387 171.839 169.387 165.333C169.387 158.826 174.72 153.386 181.333 153.386ZM181.333 210.666C171.413 210.666 162.773 205.759 157.44 198.186C157.973 190.506 173.547 186.666 181.333 186.666C189.12 186.666 204.693 190.506 205.227 198.186C199.893 205.759 191.253 210.666 181.333 210.666Z" fill="#7AC7C4"/>
</svg>
