<svg width="13" height="11" viewBox="0 0 13 11" fill="none" xmlns="http://www.w3.org/2000/svg">
<g clip-path="url(#clip0_931_817)">
<path d="M5.79696 10.7827L0.71189 6.00246C0.634843 5.93003 0.58014 5.85156 0.547781 5.76707C0.515421 5.68257 0.499498 5.59203 0.500012 5.49546C0.500012 5.39889 0.516192 5.30835 0.548551 5.22385C0.580911 5.13935 0.635357 5.06089 0.71189 4.98846L5.79696 0.208204C5.93821 0.075419 6.1149 0.00612961 6.32703 0.00033536C6.53917 -0.00545889 6.72203 0.0638305 6.87561 0.208204C7.0297 0.340989 7.11008 0.507091 7.11676 0.70651C7.12344 0.905929 7.04947 1.07782 6.89487 1.2222L3.11959 4.77118H11.7295C11.9478 4.77118 12.1309 4.84071 12.2789 4.97977C12.4268 5.11883 12.5005 5.29073 12.5 5.49546C12.5 5.70067 12.4263 5.87281 12.2789 6.01187C12.1315 6.15093 11.9483 6.22022 11.7295 6.21974H3.11959L6.89487 9.76872C7.03612 9.90151 7.11008 10.0705 7.11676 10.2757C7.12344 10.4809 7.04947 10.6499 6.89487 10.7827C6.75362 10.9276 6.57384 11 6.35554 11C6.13724 11 5.95105 10.9276 5.79696 10.7827Z" fill="#7AC7C4"/>
</g>
<defs>
<clipPath id="clip0_931_817">
<rect width="12" height="11" fill="white" transform="translate(0.5)"/>
</clipPath>
</defs>
</svg>
