<svg width="257" height="257" viewBox="0 0 257 257" fill="none" xmlns="http://www.w3.org/2000/svg">
<path d="M90.6883 126.066C80.4878 126.066 70.2914 122.141 62.1643 114.286C47.0201 99.6491 33.002 73.6393 35.8195 48.5132C36.5553 41.9409 38.2344 33.2682 44.7231 24.464C55.7326 9.52732 72.377 0.928638 90.3793 0.871094H90.5663C108.662 0.871094 125.445 9.44101 136.629 24.4106C143.162 33.2765 144.842 41.945 145.573 48.5132L145.594 48.6982C147.972 74.1449 134.06 99.9779 119.216 114.29C111.085 122.141 100.885 126.066 90.6883 126.066ZM90.5704 21.4224H90.4484C78.9022 21.4594 68.1732 27.0453 61.0219 36.7496C58.1516 40.6421 56.7002 44.7195 56.0172 50.8273C54.086 68.0535 64.7175 88.3212 76.2149 99.4313C84.6021 107.533 96.7907 107.533 105.194 99.4231C118.525 86.5702 126.811 66.5614 125.372 50.7328C124.684 44.6825 123.237 40.6297 120.375 36.7496C113.11 27.0247 102.234 21.4224 90.5704 21.4224ZM159.852 224.503C157.506 231.35 151.127 236.316 143.565 236.316H37.7547C33.1684 236.31 28.7714 234.466 25.5284 231.187C22.2854 227.908 20.4611 223.463 20.4557 218.826V210.824C20.4557 195.032 27.7412 180.387 39.4663 172.602C46.8025 167.726 55.3929 165.134 64.1727 165.146H117.155C118.224 165.146 119.285 165.187 120.347 165.261C119.917 161.978 119.69 158.671 119.668 155.36C119.668 151.743 119.993 148.208 120.46 144.714C119.363 144.657 118.265 144.595 117.159 144.595H64.1727C51.3824 144.595 38.9825 148.339 28.3104 155.425C10.6659 167.14 0.12793 187.851 0.12793 210.828V218.831C0.12793 239.809 17.0081 256.871 37.7547 256.871H143.565C159.693 256.871 173.443 246.542 178.785 232.098C172.173 230.411 165.809 227.858 159.852 224.503Z" fill="#7AC7C4"/>
<path d="M198.059 96.6523C166.043 96.6523 139.995 122.987 139.995 155.355C139.995 187.728 166.043 214.062 198.059 214.062C230.08 214.062 256.128 187.728 256.128 155.355C256.128 122.987 230.08 96.6523 198.059 96.6523ZM235.8 155.355C235.802 161.908 234.122 168.349 230.925 174.049L179.569 122.132C185.207 118.9 191.578 117.202 198.059 117.204C218.871 117.204 235.8 134.319 235.8 155.355ZM160.319 155.355C160.319 148.565 162.104 142.194 165.193 136.662L216.55 188.583C210.911 191.814 204.541 193.512 198.059 193.511C177.252 193.515 160.319 176.396 160.319 155.355Z" fill="#7AC7C4"/>
</svg>
