<svg width="33" height="32" viewBox="0 0 33 32" fill="none" xmlns="http://www.w3.org/2000/svg">
<path d="M16.1604 0C12.9959 0 9.90247 0.938384 7.27128 2.69649C4.6401 4.45459 2.58934 6.95344 1.37833 9.87706C0.167333 12.8007 -0.14952 16.0177 0.467843 19.1214C1.08521 22.2251 2.60906 25.0761 4.8467 27.3137C7.08434 29.5513 9.93527 31.0752 13.039 31.6926C16.1427 32.3099 19.3597 31.9931 22.2833 30.7821C25.207 29.5711 27.7058 27.5203 29.4639 24.8891C31.222 22.2579 32.1604 19.1645 32.1604 16C32.1604 13.8988 31.7465 11.8183 30.9425 9.87706C30.1384 7.93585 28.9598 6.17203 27.4741 4.68629C25.9884 3.20055 24.2245 2.022 22.2833 1.21793C20.3421 0.413852 18.2616 0 16.1604 0ZM16.1604 28.8C12.7656 28.8 9.5099 27.4514 7.10944 25.051C4.70897 22.6505 3.36041 19.3948 3.36041 16C3.35687 13.1573 4.30923 10.3961 6.06441 8.16L24.0004 26.096C21.7643 27.8512 19.0031 28.8035 16.1604 28.8ZM26.2564 23.84L8.32041 5.904C10.5565 4.14882 13.3178 3.19646 16.1604 3.2C19.5552 3.2 22.8109 4.54857 25.2114 6.94903C27.6118 9.3495 28.9604 12.6052 28.9604 16C28.9639 18.8426 28.0116 21.6039 26.2564 23.84Z" fill="#7AC7C4"/>
</svg>
