<svg width="50" height="50" viewBox="0 0 50 50" fill="none" xmlns="http://www.w3.org/2000/svg">
<g clip-path="url(#clip0_1419_12)">
<path d="M29.5808 25.0409L49.0498 5.57128C50.3168 4.30487 50.3168 2.25724 49.0498 0.990828C47.7834 -0.275589 45.7357 -0.275589 44.4693 0.990828L24.9997 20.4604L5.53071 0.990828C4.2637 -0.275589 2.21667 -0.275589 0.950257 0.990828C-0.316752 2.25724 -0.316752 4.30487 0.950257 5.57128L20.4193 25.0409L0.950257 44.5105C-0.316752 45.7769 -0.316752 47.8245 0.950257 49.0909C1.58139 49.7227 2.41123 50.04 3.24048 50.04C4.06974 50.04 4.89899 49.7227 5.53071 49.0909L24.9997 29.6213L44.4693 49.0909C45.101 49.7227 45.9303 50.04 46.7595 50.04C47.5888 50.04 48.418 49.7227 49.0498 49.0909C50.3168 47.8245 50.3168 45.7769 49.0498 44.5105L29.5808 25.0409Z" fill="#7AC7C4"/>
</g>
<defs>
<clipPath id="clip0_1419_12">
<rect width="50" height="50" fill="white"/>
</clipPath>
</defs>
</svg>
