<svg width="30" height="23" viewBox="0 0 30 23" fill="none" xmlns="http://www.w3.org/2000/svg">
<path d="M15.4293 11.7847C16.1565 11.187 16.7399 10.4477 17.1396 9.61709C17.5394 8.78644 17.7463 7.88386 17.7463 6.97059C17.7463 5.25448 17.0283 3.60866 15.7503 2.39519C14.4723 1.18172 12.7389 0.5 10.9315 0.5C9.12413 0.5 7.39075 1.18172 6.11273 2.39519C4.8347 3.60866 4.11672 5.25448 4.11672 6.97059C4.11671 7.88386 4.32362 8.78644 4.72341 9.61709C5.1232 10.4477 5.70651 11.187 6.43375 11.7847C4.5258 12.605 2.90704 13.9297 1.77103 15.6005C0.635025 17.2712 0.0298381 19.2172 0.027832 21.2059C0.027832 21.5491 0.171429 21.8783 0.427034 22.121C0.682639 22.3637 1.02931 22.5 1.39079 22.5C1.75227 22.5 2.09895 22.3637 2.35455 22.121C2.61016 21.8783 2.75376 21.5491 2.75376 21.2059C2.75376 19.1466 3.61534 17.1716 5.14897 15.7154C6.6826 14.2592 8.76265 13.4412 10.9315 13.4412C13.1004 13.4412 15.1805 14.2592 16.7141 15.7154C18.2477 17.1716 19.1093 19.1466 19.1093 21.2059C19.1093 21.5491 19.2529 21.8783 19.5085 22.121C19.7641 22.3637 20.1108 22.5 20.4723 22.5C20.8337 22.5 21.1804 22.3637 21.436 22.121C21.6916 21.8783 21.8352 21.5491 21.8352 21.2059C21.8332 19.2172 21.228 17.2712 20.092 15.6005C18.956 13.9297 17.3373 12.605 15.4293 11.7847ZM10.9315 10.8529C10.1228 10.8529 9.33228 10.6252 8.65986 10.1986C7.98745 9.77205 7.46337 9.16571 7.15389 8.4563C6.84441 7.74689 6.76344 6.96628 6.92121 6.21318C7.07898 5.46008 7.46841 4.76831 8.04025 4.22535C8.61209 3.68239 9.34066 3.31264 10.1338 3.16283C10.927 3.01303 11.7491 3.08992 12.4963 3.38376C13.2434 3.67761 13.882 4.17522 14.3313 4.81367C14.7806 5.45212 15.0204 6.20273 15.0204 6.97059C15.0204 8.00025 14.5896 8.98774 13.8228 9.71583C13.056 10.4439 12.016 10.8529 10.9315 10.8529ZM24.2068 11.2671C25.079 10.3344 25.6488 9.18231 25.8475 7.94938C26.0462 6.71645 25.8654 5.45527 25.3268 4.31765C24.7882 3.18002 23.9148 2.21444 22.8117 1.53714C21.7087 0.859829 20.4229 0.499667 19.1093 0.5C18.7478 0.5 18.4011 0.636344 18.1455 0.879038C17.8899 1.12173 17.7463 1.4509 17.7463 1.79412C17.7463 2.13734 17.8899 2.4665 18.1455 2.7092C18.4011 2.95189 18.7478 3.08824 19.1093 3.08824C20.1937 3.08824 21.2338 3.49727 22.0006 4.22535C22.7674 4.95343 23.1982 5.94092 23.1982 6.97059C23.1963 7.65031 23.0064 8.31764 22.6476 8.90584C22.2889 9.49404 21.7737 9.98249 21.1537 10.3224C20.9517 10.433 20.7829 10.5911 20.6636 10.7814C20.5442 10.9718 20.4784 11.188 20.4723 11.4094C20.4666 11.6291 20.5199 11.8466 20.6272 12.0413C20.7345 12.236 20.8922 12.4016 21.0856 12.5224L21.6171 12.8588L21.7943 12.9494C23.4372 13.6893 24.8233 14.8595 25.7891 16.3223C26.755 17.7851 27.2606 19.4794 27.2462 21.2059C27.2462 21.5491 27.3898 21.8783 27.6454 22.121C27.901 22.3637 28.2477 22.5 28.6091 22.5C28.9706 22.5 29.3173 22.3637 29.5729 22.121C29.8285 21.8783 29.9721 21.5491 29.9721 21.2059C29.9832 19.22 29.4594 17.2643 28.4503 15.5248C27.4412 13.7852 25.9805 12.3196 24.2068 11.2671Z" fill="#7AC7C4"/>
</svg>
