<svg width="30" height="23" viewBox="0 0 30 23" fill="none" xmlns="http://www.w3.org/2000/svg">
<path d="M15.4292 11.7847C16.1565 11.187 16.7398 10.4477 17.1396 9.61709C17.5394 8.78644 17.7463 7.88386 17.7463 6.97059C17.7463 5.25448 17.0283 3.60866 15.7503 2.39519C14.4722 1.18172 12.7389 0.5 10.9315 0.5C9.12407 0.5 7.3907 1.18172 6.11268 2.39519C4.83465 3.60866 4.11666 5.25448 4.11666 6.97059C4.11665 7.88386 4.32356 8.78644 4.72335 9.61709C5.12314 10.4477 5.70645 11.187 6.4337 11.7847C4.52574 12.605 2.90699 13.9297 1.77098 15.6005C0.634972 17.2712 0.0297847 19.2172 0.0277786 21.2059C0.0277786 21.5491 0.171376 21.8783 0.426981 22.121C0.682586 22.3637 1.02926 22.5 1.39074 22.5C1.75222 22.5 2.0989 22.3637 2.3545 22.121C2.6101 21.8783 2.7537 21.5491 2.7537 21.2059C2.7537 19.1466 3.61529 17.1716 5.14892 15.7154C6.68255 14.2592 8.76259 13.4412 10.9315 13.4412C13.1004 13.4412 15.1804 14.2592 16.714 15.7154C18.2477 17.1716 19.1092 19.1466 19.1092 21.2059C19.1092 21.5491 19.2528 21.8783 19.5084 22.121C19.7641 22.3637 20.1107 22.5 20.4722 22.5C20.8337 22.5 21.1804 22.3637 21.436 22.121C21.6916 21.8783 21.8352 21.5491 21.8352 21.2059C21.8332 19.2172 21.228 17.2712 20.092 15.6005C18.956 13.9297 17.3372 12.605 15.4292 11.7847ZM10.9315 10.8529C10.1228 10.8529 9.33222 10.6252 8.65981 10.1986C7.9874 9.77205 7.46331 9.16571 7.15384 8.4563C6.84436 7.74689 6.76338 6.96628 6.92115 6.21318C7.07893 5.46008 7.46835 4.76831 8.04019 4.22535C8.61204 3.68239 9.34061 3.31264 10.1338 3.16283C10.9269 3.01303 11.7491 3.08992 12.4962 3.38376C13.2434 3.67761 13.882 4.17522 14.3313 4.81367C14.7805 5.45212 15.0204 6.20273 15.0204 6.97059C15.0204 8.00025 14.5896 8.98774 13.8228 9.71583C13.0559 10.4439 12.0159 10.8529 10.9315 10.8529ZM24.2067 11.2671C25.079 10.3344 25.6487 9.18231 25.8475 7.94938C26.0462 6.71645 25.8653 5.45527 25.3268 4.31765C24.7882 3.18002 23.9148 2.21444 22.8117 1.53714C21.7086 0.859829 20.4229 0.499667 19.1092 0.5C18.7478 0.5 18.4011 0.636344 18.1455 0.879038C17.8899 1.12173 17.7463 1.4509 17.7463 1.79412C17.7463 2.13734 17.8899 2.4665 18.1455 2.7092C18.4011 2.95189 18.7478 3.08824 19.1092 3.08824C20.1937 3.08824 21.2337 3.49727 22.0005 4.22535C22.7673 4.95343 23.1981 5.94092 23.1981 6.97059C23.1962 7.65031 23.0064 8.31764 22.6476 8.90584C22.2888 9.49404 21.7737 9.98249 21.1537 10.3224C20.9516 10.433 20.7828 10.5911 20.6635 10.7814C20.5442 10.9718 20.4783 11.188 20.4722 11.4094C20.4665 11.6291 20.5198 11.8466 20.6271 12.0413C20.7344 12.236 20.8922 12.4016 21.0855 12.5224L21.6171 12.8588L21.7943 12.9494C23.4372 13.6893 24.8232 14.8595 25.7891 16.3223C26.755 17.7851 27.2605 19.4794 27.2461 21.2059C27.2461 21.5491 27.3897 21.8783 27.6453 22.121C27.9009 22.3637 28.2476 22.5 28.6091 22.5C28.9706 22.5 29.3172 22.3637 29.5728 22.121C29.8285 21.8783 29.972 21.5491 29.972 21.2059C29.9832 19.22 29.4593 17.2643 28.4503 15.5248C27.4412 13.7852 25.9804 12.3196 24.2067 11.2671Z" fill="white"/>
</svg>
