<svg width="30" height="30" viewBox="0 0 30 30" fill="none" xmlns="http://www.w3.org/2000/svg">
<g clip-path="url(#clip0_1419_2)">
<path d="M15 0C6.70881 0 0 6.70939 0 15C0 23.2912 6.70939 30 15 30C23.2912 30 30 23.2906 30 15C30 6.70881 23.2905 0 15 0ZM15 27.6562C8.00432 27.6562 2.34375 21.9952 2.34375 15C2.34375 8.00432 8.00479 2.34375 15 2.34375C21.9957 2.34375 27.6562 8.00479 27.6562 15C27.6562 21.9957 21.9952 27.6562 15 27.6562Z" fill="#7AC7C4"/>
<path d="M15 12.5586C14.3528 12.5586 13.8281 13.0832 13.8281 13.7305V21.2769C13.8281 21.9242 14.3528 22.4488 15 22.4488C15.6472 22.4488 16.1719 21.9241 16.1719 21.2769V13.7305C16.1719 13.0832 15.6472 12.5586 15 12.5586Z" fill="#7AC7C4"/>
<path d="M15 11.1235C15.8737 11.1235 16.582 10.4152 16.582 9.5415C16.582 8.66777 15.8737 7.95947 15 7.95947C14.1263 7.95947 13.418 8.66777 13.418 9.5415C13.418 10.4152 14.1263 11.1235 15 11.1235Z" fill="#7AC7C4"/>
</g>
<defs>
<clipPath id="clip0_1419_2">
<rect width="30" height="30" fill="white"/>
</clipPath>
</defs>
</svg>
