<svg width="257" height="257" viewBox="0 0 257 257" fill="none" xmlns="http://www.w3.org/2000/svg">
<path d="M141.467 256.334H243.867C247.262 256.334 250.517 255.108 252.918 252.925C255.318 250.743 256.667 247.783 256.667 244.697V11.9699C256.667 8.8837 255.318 5.92395 252.918 3.74171C250.517 1.55947 247.262 0.333496 243.867 0.333496H141.467C138.072 0.333496 134.816 1.55947 132.416 3.74171C130.015 5.92395 128.667 8.8837 128.667 11.9699C128.667 15.056 130.015 18.0158 132.416 20.198C134.816 22.3803 138.072 23.6062 141.467 23.6062H231.067V233.061H141.467C138.072 233.061 134.816 234.287 132.416 236.469C130.015 238.651 128.667 241.611 128.667 244.697C128.667 247.783 130.015 250.743 132.416 252.925C134.816 255.108 138.072 256.334 141.467 256.334Z" fill="#7AC7C4"/>
<path d="M0.666748 128.333C0.666748 131.42 2.01532 134.379 4.41578 136.562C6.81625 138.744 10.072 139.97 13.4667 139.97H161.768L132.417 166.652C131.195 167.725 130.219 169.009 129.549 170.429C128.878 171.849 128.525 173.376 128.51 174.921C128.495 176.466 128.819 177.998 129.463 179.428C130.106 180.858 131.057 182.157 132.258 183.25C133.46 184.343 134.889 185.207 136.463 185.792C138.036 186.377 139.721 186.671 141.421 186.658C143.12 186.644 144.8 186.323 146.362 185.714C147.923 185.104 149.336 184.217 150.516 183.106L201.716 136.56C202.911 135.477 203.855 134.187 204.494 132.767C205.788 129.92 205.788 126.723 204.494 123.877C203.855 122.457 202.911 121.167 201.716 120.083L150.516 73.5378C149.336 72.4264 147.923 71.5399 146.362 70.9301C144.8 70.3202 143.12 69.9992 141.421 69.9858C139.721 69.9724 138.036 70.2668 136.463 70.8519C134.889 71.437 133.46 72.301 132.258 73.3936C131.057 74.4861 130.106 75.7854 129.463 77.2154C128.819 78.6455 128.495 80.1778 128.51 81.7228C128.525 83.2679 128.878 84.7948 129.549 86.2145C130.219 87.6342 131.195 88.9182 132.417 89.9916L161.768 116.697H13.4667C10.072 116.697 6.81625 117.923 4.41578 120.105C2.01532 122.288 0.666748 125.247 0.666748 128.333Z" fill="#7AC7C4"/>
</svg>
