<svg width="256" height="256" viewBox="0 0 256 256" fill="none" xmlns="http://www.w3.org/2000/svg">
<g clip-path="url(#clip0_1440_15)">
<path d="M203.836 140.298C192.991 132.505 181.183 126.506 168.745 122.409C185.283 109.993 196 90.2245 196 68C196 30.505 165.496 0 128 0C90.5048 0 60.0003 30.505 60.0003 68C60.0003 90.252 70.7443 110.042 87.3168 122.455C72.1328 127.454 57.8853 135.233 45.4153 145.49C22.5493 164.299 6.6508 190.533 0.649296 219.361C-1.2317 228.394 1.0218 237.673 6.8308 244.816C12.6113 251.924 21.1828 256 30.3468 256H133.5C139.023 256 143.5 251.523 143.5 246C143.5 240.477 139.023 236 133.5 236H30.3468C26.0778 236 23.5023 233.617 22.3473 232.197C20.3528 229.745 19.5808 226.552 20.2293 223.438C30.6073 173.59 74.5748 137.177 125.349 135.949C127.122 136.017 128.898 136.017 130.671 135.948C152.904 136.474 174.112 143.566 192.165 156.539C196.649 159.762 202.898 158.739 206.121 154.255C209.344 149.77 208.321 143.521 203.836 140.298ZM130.435 115.939C128.817 115.909 127.198 115.909 125.58 115.939C100.233 114.675 80.0003 93.656 80.0003 68C80.0003 41.5325 101.533 20 128 20C154.468 20 176 41.5325 176 68C176 93.651 155.775 114.667 130.435 115.939Z" fill="#7AC7C4"/>
<path d="M227.643 213.501L253.071 188.072C256.977 184.167 256.977 177.835 253.071 173.93C249.166 170.024 242.834 170.024 238.929 173.93L213.5 199.358L188.071 173.929C184.166 170.024 177.834 170.024 173.929 173.929C170.024 177.835 170.024 184.167 173.929 188.072L199.358 213.501L173.929 238.929C170.024 242.835 170.024 249.167 173.929 253.072C174.857 254.002 175.959 254.739 177.172 255.242C178.386 255.745 179.687 256.002 181 256.001C182.314 256.002 183.614 255.745 184.828 255.242C186.041 254.739 187.144 254.002 188.071 253.072L213.5 227.643L238.929 253.072C239.857 254.002 240.959 254.739 242.172 255.242C243.386 255.745 244.687 256.002 246 256.001C247.314 256.002 248.614 255.745 249.828 255.242C251.041 254.739 252.144 254.002 253.071 253.072C256.977 249.167 256.977 242.835 253.071 238.93L227.643 213.501Z" fill="#7AC7C4"/>
</g>
<defs>
<clipPath id="clip0_1440_15">
<rect width="256" height="256" fill="white"/>
</clipPath>
</defs>
</svg>
