<svg width="256" height="256" viewBox="0 0 256 256" fill="none" xmlns="http://www.w3.org/2000/svg">
<g clip-path="url(#clip0_1442_2)">
<mask id="mask0_1442_2" style="mask-type:luminance" maskUnits="userSpaceOnUse" x="0" y="0" width="256" height="256">
<path d="M256 0H0V256H256V0Z" fill="white"/>
</mask>
<g mask="url(#mask0_1442_2)">
<path d="M85.3332 138.667C82.5042 138.667 79.7911 137.543 77.7907 135.543C75.7903 133.542 74.6665 130.829 74.6665 128C74.6665 125.171 75.7903 122.458 77.7907 120.458C79.7911 118.457 82.5042 117.333 85.3332 117.333H234.667C237.496 117.333 240.209 118.457 242.209 120.458C244.21 122.458 245.333 125.171 245.333 128C245.333 130.829 244.21 133.542 242.209 135.543C240.209 137.543 237.496 138.667 234.667 138.667H85.3332Z" fill="#7AC7C4"/>
<path d="M234.667 136H85.333C83.2112 136 81.1764 135.157 79.6761 133.657C78.1758 132.157 77.333 130.122 77.333 128C77.333 125.878 78.1758 123.843 79.6761 122.343C81.1764 120.843 83.2112 120 85.333 120H234.667C236.788 120 238.823 120.843 240.324 122.343C241.824 123.843 242.667 125.878 242.667 128C242.667 130.122 241.824 132.157 240.324 133.657C238.823 135.157 236.788 136 234.667 136Z" fill="#7AC7C4"/>
<path d="M192 181.333C189.892 181.334 187.83 180.71 186.076 179.539C184.322 178.369 182.955 176.705 182.146 174.758C181.337 172.811 181.124 170.667 181.533 168.599C181.941 166.53 182.954 164.629 184.443 163.136L219.49 128L184.453 92.8748C183.454 91.8856 182.66 90.7085 182.117 89.4114C181.575 88.1142 181.294 86.7225 181.291 85.3164C181.288 83.9103 181.563 82.5175 182.101 81.2182C182.638 79.9189 183.427 78.7386 184.423 77.7454C185.418 76.7522 186.6 75.9656 187.9 75.4308C189.201 74.8961 190.594 74.6237 192 74.6295C193.406 74.6352 194.797 74.919 196.094 75.4644C197.39 76.0098 198.565 76.806 199.552 77.8074L242.104 120.463C244.095 122.465 245.213 125.172 245.215 127.995C245.217 130.818 244.103 133.527 242.115 135.531L199.552 178.203C198.563 179.199 197.387 179.989 196.09 180.526C194.794 181.064 193.403 181.338 192 181.333Z" fill="#7AC7C4"/>
<path d="M192 178.667C190.418 178.668 188.871 178.199 187.556 177.321C186.24 176.443 185.214 175.195 184.607 173.734C184.001 172.273 183.841 170.665 184.148 169.113C184.456 167.561 185.216 166.135 186.333 165.016L223.255 128L186.339 90.9897C184.844 89.4873 184.007 87.4533 184.011 85.3342C184.014 83.2151 184.859 81.1841 186.359 79.687C187.859 78.19 189.891 77.3492 192.01 77.3493C194.129 77.3494 196.162 78.1904 197.661 79.6876L240.219 122.349C241.715 123.849 242.556 125.88 242.557 127.999C242.558 130.118 241.719 132.15 240.224 133.651L197.667 176.318C196.924 177.064 196.041 177.655 195.068 178.058C194.095 178.462 193.053 178.668 192 178.667ZM42.6665 245.334C34.1824 245.324 26.0485 241.95 20.0493 235.951C14.0501 229.952 10.6757 221.818 10.6665 213.334V53.3335C10.6757 44.8494 14.0501 36.7155 20.0493 30.7163C26.0485 24.7172 34.1824 21.3428 42.6665 21.3335H138.667C147.151 21.3428 155.285 24.7172 161.284 30.7163C167.283 36.7155 170.657 44.8494 170.667 53.3335V74.6668C170.667 77.4958 169.543 80.2089 167.542 82.2093C165.542 84.2097 162.829 85.3335 160 85.3335C157.171 85.3335 154.458 84.2097 152.458 82.2093C150.457 80.2089 149.333 77.4958 149.333 74.6668V53.3335C149.33 50.5056 148.205 47.7947 146.205 45.7951C144.206 43.7955 141.495 42.6705 138.667 42.6668H42.6665C39.8386 42.6705 37.1277 43.7955 35.1281 45.7951C33.1285 47.7947 32.0035 50.5056 31.9998 53.3335V213.334C32.0035 216.161 33.1285 218.872 35.1281 220.872C37.1277 222.872 39.8386 223.996 42.6665 224H138.667C141.495 223.996 144.206 222.872 146.205 220.872C148.205 218.872 149.33 216.161 149.333 213.334V181.334C149.333 178.505 150.457 175.791 152.458 173.791C154.458 171.791 157.171 170.667 160 170.667C162.829 170.667 165.542 171.791 167.542 173.791C169.543 175.791 170.667 178.505 170.667 181.334V213.334C170.657 221.818 167.283 229.952 161.284 235.951C155.285 241.95 147.151 245.324 138.667 245.334H42.6665Z" fill="#7AC7C4"/>
<path d="M138.667 242.667H42.6663C34.8891 242.659 27.4326 239.566 21.9332 234.066C16.4339 228.567 13.3409 221.111 13.333 213.333V53.3333C13.3409 45.5561 16.4339 38.0996 21.9332 32.6003C27.4326 27.1009 34.8891 24.0079 42.6663 24H138.667C146.444 24.0079 153.9 27.1009 159.4 32.6003C164.899 38.0996 167.992 45.5561 168 53.3333V74.6667C168 76.7884 167.157 78.8232 165.657 80.3235C164.157 81.8238 162.122 82.6667 160 82.6667C157.878 82.6667 155.843 81.8238 154.343 80.3235C152.843 78.8232 152 76.7884 152 74.6667V53.3333C151.997 49.7981 150.591 46.4086 148.091 43.9089C145.591 41.4091 142.202 40.0033 138.667 40H42.6663C39.1311 40.0033 35.7416 41.4091 33.2418 43.9089C30.7421 46.4086 29.3363 49.7981 29.333 53.3333V213.333C29.3363 216.869 30.7421 220.258 33.2418 222.758C35.7416 225.258 39.1311 226.663 42.6663 226.667H138.667C142.202 226.663 145.591 225.258 148.091 222.758C150.591 220.258 151.997 216.869 152 213.333V181.333C152 179.212 152.843 177.177 154.343 175.676C155.843 174.176 157.878 173.333 160 173.333C162.122 173.333 164.157 174.176 165.657 175.676C167.157 177.177 168 179.212 168 181.333V213.333C167.992 221.111 164.899 228.567 159.4 234.066C153.9 239.566 146.444 242.659 138.667 242.667Z" fill="#7AC7C4"/>
</g>
</g>
<defs>
<clipPath id="clip0_1442_2">
<rect width="256" height="256" fill="white"/>
</clipPath>
</defs>
</svg>
