<svg width="256" height="256" viewBox="0 0 256 256" fill="none" xmlns="http://www.w3.org/2000/svg">
<path d="M168 256H24C10.7735 256 0 245.238 0 232V120C0 106.762 10.7735 96 24 96H168C181.226 96 192 106.762 192 120V232C192 245.238 181.226 256 168 256ZM24 112C19.5935 112 16 115.584 16 120V232C16 236.416 19.594 240 24 240H168C172.406 240 176 236.416 176 232V120C176 115.584 172.406 112 168 112H24Z" fill="#7AC7C4"/>
<path d="M152 112C147.584 112 144 108.416 144 104V64C144 37.535 122.465 16 96 16C69.535 16 48 37.535 48 64V104C48 108.416 44.416 112 40 112C35.584 112 32 108.416 32 104V64C32 28.703 60.703 0 96 0C131.297 0 160 28.703 160 64V104C160 108.416 156.416 112 152 112Z" fill="#7AC7C4"/>
</svg>
