<svg width="30" height="30" viewBox="0 0 30 30" fill="none" xmlns="http://www.w3.org/2000/svg">
<path fill-rule="evenodd" clip-rule="evenodd" d="M6.87476 13.1243C7.91029 13.1243 8.74976 13.9638 8.74976 14.9993C8.74976 16.0348 7.91029 16.8743 6.87476 16.8743C5.83922 16.8743 4.99976 16.0348 4.99976 14.9993C4.99976 13.9638 5.83922 13.1243 6.87476 13.1243ZM14.9998 13.1243C16.0353 13.1243 16.8748 13.9638 16.8748 14.9993C16.8748 16.0348 16.0353 16.8743 14.9998 16.8743C13.9643 16.8743 13.1248 16.0348 13.1248 14.9993C13.1248 13.9638 13.9643 13.1243 14.9998 13.1243ZM24.9998 14.9993C24.9998 13.9638 24.1603 13.1243 23.1248 13.1243C22.0893 13.1243 21.2498 13.9638 21.2498 14.9993C21.2498 16.0348 22.0893 16.8743 23.1248 16.8743C24.1603 16.8743 24.9998 16.0348 24.9998 14.9993Z" fill="#7AC7C4"/>
</svg>
