<svg width="22" height="23" viewBox="0 0 22 23" fill="none" xmlns="http://www.w3.org/2000/svg">
<path d="M15.0848 12.2803C16.1685 11.4323 16.9596 10.2694 17.3478 8.95351C17.7361 7.63759 17.7023 6.23403 17.2512 4.9381C16.8 3.64217 15.9539 2.51831 14.8306 1.72288C13.7073 0.92745 12.3626 0.5 10.9836 0.5C9.60463 0.5 8.25995 0.92745 7.13662 1.72288C6.0133 2.51831 5.1672 3.64217 4.71604 4.9381C4.26488 6.23403 4.23109 7.63759 4.61937 8.95351C5.00765 10.2694 5.7987 11.4323 6.88245 12.2803C5.02541 13.0202 3.40508 14.2474 2.1942 15.8311C0.983314 17.4148 0.227271 19.2956 0.00666779 21.2731C-0.00930062 21.4174 0.00348032 21.5635 0.0442806 21.703C0.0850808 21.8424 0.153101 21.9725 0.244459 22.0859C0.428964 22.3147 0.697323 22.4613 0.990502 22.4934C1.28368 22.5254 1.57766 22.4404 1.80778 22.2569C2.03789 22.0734 2.18528 21.8065 2.21753 21.5149C2.46027 19.3659 3.49064 17.3811 5.11179 15.9398C6.73295 14.4985 8.83122 13.7018 11.0057 13.7018C13.1802 13.7018 15.2785 14.4985 16.8996 15.9398C18.5208 17.3811 19.5512 19.3659 19.7939 21.5149C19.8239 21.7851 19.9536 22.0345 20.1577 22.2152C20.3618 22.3959 20.626 22.495 20.8993 22.4934H21.0209C21.3107 22.4602 21.5755 22.3145 21.7578 22.088C21.94 21.8615 22.0248 21.5725 21.9937 21.2841C21.7721 19.301 21.0119 17.4154 19.7948 15.8292C18.5777 14.2431 16.9495 13.0163 15.0848 12.2803ZM10.9836 11.4997C10.1091 11.4997 9.25417 11.2418 8.52703 10.7586C7.79988 10.2754 7.23313 9.58861 6.89846 8.78508C6.56379 7.98154 6.47623 7.09736 6.64684 6.24434C6.81745 5.39131 7.23858 4.60776 7.85697 3.99276C8.47536 3.37777 9.26324 2.95895 10.121 2.78927C10.9787 2.61959 11.8678 2.70668 12.6757 3.03951C13.4837 3.37235 14.1743 3.93598 14.6601 4.65914C15.146 5.3823 15.4053 6.2325 15.4053 7.10224C15.4053 8.26852 14.9395 9.38703 14.1102 10.2117C13.281 11.0364 12.1563 11.4997 10.9836 11.4997Z" fill="#7AC7C4"/>
</svg>
