<svg width="256" height="256" viewBox="0 0 256 256" fill="none" xmlns="http://www.w3.org/2000/svg">
<path d="M240 75.3601C238.368 10.6601 149.552 -0.727863 131.272 60.7001H48.112C39.6032 60.7054 31.4439 64.0854 25.4239 70.0986C19.404 76.1119 16.0148 84.2674 16 92.7761V226.708C16.0064 229.181 16.9925 231.55 18.7424 233.297C20.4924 235.044 22.8634 236.026 25.336 236.028C27.6562 236.021 29.8884 235.14 31.588 233.56L61.328 206.224C63.4884 204.221 66.3301 203.116 69.276 203.132H185.268C193.782 203.124 201.946 199.738 207.967 193.718C213.988 187.697 217.374 179.535 217.384 171.02V119.912C224.386 114.784 230.083 108.078 234.012 100.339C237.941 92.5995 239.992 84.0397 240 75.3601ZM209.384 171.02C209.377 177.413 206.833 183.543 202.312 188.063C197.791 192.584 191.661 195.126 185.268 195.132H69.28C64.301 195.093 59.4981 196.972 55.868 200.38L26.188 227.664C26.0047 227.843 25.7713 227.961 25.5189 228.003C25.2666 228.045 25.0074 228.009 24.776 227.9C24.5394 227.806 24.3378 227.641 24.1994 227.428C24.0611 227.214 23.9928 226.962 24.004 226.708V92.7721C24.0146 86.3834 26.5594 80.2599 31.0799 75.7454C35.6004 71.2309 41.7273 68.6942 48.116 68.6921H129.68C129.399 70.9053 129.252 73.1333 129.24 75.3641C128.496 115.78 173.812 143.64 209.384 124.828V171.02ZM184.616 122.748C172.054 122.733 160.01 117.736 151.128 108.851C142.246 99.9673 137.252 87.9226 137.24 75.3601C139.84 12.5041 229.408 12.5241 232 75.3601C231.987 87.9233 226.991 99.9682 218.108 108.852C209.224 117.735 197.179 122.735 184.616 122.748Z" fill="#7AC7C4"/>
<path d="M38.3481 106.804H108.28C109.341 106.804 110.358 106.383 111.109 105.633C111.859 104.883 112.28 103.865 112.28 102.804C112.28 101.743 111.859 100.726 111.109 99.9758C110.358 99.2257 109.341 98.8043 108.28 98.8043H38.3481C37.2873 98.8043 36.2699 99.2257 35.5197 99.9758C34.7696 100.726 34.3481 101.743 34.3481 102.804C34.3481 103.865 34.7696 104.883 35.5197 105.633C36.2699 106.383 37.2873 106.804 38.3481 106.804ZM38.3481 135.916H134.08C135.141 135.916 136.158 135.495 136.909 134.745C137.659 133.995 138.08 132.977 138.08 131.916C138.08 130.855 137.659 129.838 136.909 129.088C136.158 128.338 135.141 127.916 134.08 127.916H38.3481C37.2873 127.916 36.2699 128.338 35.5197 129.088C34.7696 129.838 34.3481 130.855 34.3481 131.916C34.3481 132.977 34.7696 133.995 35.5197 134.745C36.2699 135.495 37.2873 135.916 38.3481 135.916ZM34.3481 161.024C34.3481 162.085 34.7696 163.103 35.5197 163.853C36.2699 164.603 37.2873 165.024 38.3481 165.024H186.26C187.321 165.024 188.338 164.603 189.089 163.853C189.839 163.103 190.26 162.085 190.26 161.024C190.26 159.963 189.839 158.946 189.089 158.196C188.338 157.446 187.321 157.024 186.26 157.024H38.3481C37.2873 157.024 36.2699 157.446 35.5197 158.196C34.7696 158.946 34.3481 159.963 34.3481 161.024ZM205.248 62.6562H163.992C148.024 62.8203 148.008 87.9043 163.992 88.0723H205.248C221.216 87.9043 221.228 62.8242 205.248 62.6562ZM209.248 76.0723C209.248 77.1331 208.827 78.1505 208.077 78.9007C207.326 79.6508 206.309 80.0723 205.248 80.0723H163.992C158.56 80.1203 158.552 70.6082 163.992 70.6562H205.248C205.891 70.6893 206.519 70.8645 207.086 71.1693C207.653 71.474 208.146 71.9007 208.529 72.4186C208.911 72.9366 209.174 73.5329 209.298 74.1647C209.423 74.7964 209.406 75.4479 209.248 76.0723Z" fill="#7AC7C4"/>
</svg>
