<svg width="260" height="260" viewBox="0 0 260 260" fill="none" xmlns="http://www.w3.org/2000/svg">
<mask id="mask0_1451_9" style="mask-type:luminance" maskUnits="userSpaceOnUse" x="0" y="0" width="260" height="260">
<path d="M2 1H1V2V258V259H2H258H259V258V2V1H258H2Z" fill="white" stroke="white" stroke-width="2"/>
</mask>
<g mask="url(#mask0_1451_9)">
<path d="M133.568 46.7152L133.897 47.6521L134.837 47.3299C141.561 45.0231 148.596 43.75 155.702 43.5543L156.987 43.5189L156.637 42.2826C149.938 18.5927 127.999 1 102.267 1C71.293 1 45.8 26.493 45.8 57.4667V57.4685C45.8138 65.2204 47.4267 72.8861 50.5378 79.9864C53.4423 86.6155 57.5945 92.6186 62.7632 97.671C26.6182 113.199 1 149.252 1 190.8C1 193.894 2.22916 196.862 4.41709 199.05C6.60501 201.238 9.57247 202.467 12.6667 202.467C15.7609 202.467 18.7283 201.238 20.9162 199.05C23.1042 196.862 24.3333 193.894 24.3333 190.8C24.3333 153.58 51.2628 121.924 86.4727 114.509L87.2616 114.343L87.2666 113.537C87.3193 105.216 88.8129 97.2338 91.5154 89.8309L91.8562 88.8974L90.9248 88.5508C78.2835 83.8466 69.1333 71.5779 69.1333 57.4667C69.1333 39.3736 84.1736 24.3333 102.267 24.3333C116.595 24.3333 129.03 33.7842 133.568 46.7152ZM237.667 12.6667C237.667 9.57248 236.438 6.60501 234.25 4.41709C232.062 2.22916 229.094 1 226 1C222.906 1 219.938 2.22916 217.75 4.41709C215.562 6.60501 214.333 9.57248 214.333 12.6667V22.3333H204.667C201.572 22.3333 198.605 23.5625 196.417 25.7504C194.229 27.9383 193 30.9058 193 34C193 37.0942 194.229 40.0617 196.417 42.2496C198.605 44.4375 201.572 45.6667 204.667 45.6667H214.333V55.3333C214.333 58.4275 215.562 61.395 217.75 63.5829C219.938 65.7708 222.906 67 226 67C229.094 67 232.062 65.7708 234.25 63.5829C236.438 61.395 237.667 58.4275 237.667 55.3333V45.6667H247.333C250.428 45.6667 253.395 44.4375 255.583 42.2496C257.771 40.0617 259 37.0942 259 34C259 30.9058 257.771 27.9383 255.583 25.7504C253.395 23.5625 250.428 22.3333 247.333 22.3333H237.667V12.6667Z" fill="#7AC7C4" stroke="#7AC7C4" stroke-width="2"/>
<path d="M157.73 79.8007L157.737 79.8007C166.524 79.7705 174.964 83.2323 181.199 89.4247C187.434 95.617 190.954 104.033 190.984 112.82C191.014 121.608 187.552 130.047 181.36 136.282C175.168 142.517 166.754 146.037 157.967 146.067C157.966 146.067 157.965 146.067 157.965 146.067H157.502C157.502 146.067 157.501 146.067 157.5 146.067C148.713 146.037 140.299 142.517 134.107 136.282C127.914 130.047 124.453 121.608 124.483 112.82C124.513 104.033 128.033 95.617 134.268 89.4247C140.503 83.2323 148.943 79.7705 157.73 79.8007ZM102.851 126.218C105.416 136.816 110.992 146.433 118.889 153.919C82.3874 169.293 56.4668 205.541 56.4668 247.334C56.4668 250.428 57.696 253.396 59.8839 255.584C62.0718 257.772 65.0393 259.001 68.1335 259.001C71.2277 259.001 74.1951 257.772 76.383 255.584C78.571 253.396 79.8001 250.428 79.8001 247.334C79.8001 204.793 114.969 169.549 157.468 169.401C157.469 169.401 157.47 169.401 157.47 169.401H157.997C157.997 169.401 157.998 169.401 157.999 169.401C200.487 169.549 235.667 204.793 235.667 247.334C235.667 250.428 236.896 253.396 239.084 255.584C241.272 257.772 244.239 259.001 247.333 259.001C250.428 259.001 253.395 257.772 255.583 255.584C257.771 253.396 259 250.428 259 247.334C259 205.541 233.069 169.293 196.577 153.919C204.475 146.433 210.051 136.816 212.616 126.218C215.305 115.107 214.558 103.442 210.474 92.7642C206.391 82.0867 199.162 72.9002 189.745 66.4194C180.328 59.9386 169.165 56.4688 157.733 56.4688C146.302 56.4688 135.139 59.9386 125.722 66.4194C116.305 72.9002 109.076 82.0867 104.993 92.7642C100.909 103.442 100.162 115.107 102.851 126.218Z" fill="#7AC7C4" stroke="#7AC7C4" stroke-width="2"/>
</g>
</svg>
