<svg width="33" height="32" viewBox="0 0 33 32" fill="none" xmlns="http://www.w3.org/2000/svg">
<path d="M27.6003 18.9352C24.8433 18.9352 22.6003 21.1785 22.6003 23.9362C22.6003 26.6937 24.8433 28.9373 27.6003 28.9373C30.3573 28.9373 32.6003 26.6937 32.6003 23.9362C32.6003 21.1785 30.3573 18.9352 27.6003 18.9352ZM27.6003 26.4368C26.2218 26.4368 25.1003 25.3149 25.1003 23.9362C25.1003 22.5573 26.2218 21.4357 27.6003 21.4357C28.9786 21.4357 30.1003 22.5573 30.1003 23.9362C30.1003 25.3149 28.9786 26.4368 27.6003 26.4368ZM20.0909 24.4354L20.0933 24.4331L7.94059 12.2479C8.41029 10.4009 9.64019 8.47512 11.6152 6.49972C14.2872 3.82687 17.3335 2.47389 20.2531 2.47389C22.749 2.47389 25.1523 3.46275 27.1503 5.46121C30.2681 8.57985 30.9128 12.6943 29.1679 16.6063C29.9879 16.7816 30.7724 17.094 31.4884 17.5303C32.1349 16.0421 32.506 14.5002 32.5839 12.9375C32.7548 9.51164 31.4529 6.22856 28.9181 3.69309C26.3824 1.15657 23.0968 -0.150696 19.6658 0.0138377C16.1611 0.180872 12.7661 1.81221 9.84734 4.73151C6.72469 7.8548 5.16944 11.0025 5.22434 14.0877C5.23834 14.8908 5.41454 15.65 5.58469 16.2872C6.73234 20.5805 6.54169 20.9268 4.12804 23.3408L1.33114 26.1214C0.356742 27.0962 0.356742 28.6827 1.33114 29.6575L2.94209 31.2688C3.42979 31.7564 4.07039 32 4.71064 32C5.35014 32 5.98914 31.7572 6.47514 31.2714L9.26904 28.4934L9.27254 28.4899C12.0005 25.7618 12.1069 25.6553 15.9891 26.6933C16.9638 26.9541 17.872 27.0769 18.7675 27.0677C19.4102 27.0615 20.0528 26.9931 20.6923 26.8659C20.364 26.0926 20.1689 25.2693 20.1153 24.4309C20.1073 24.4324 20.0993 24.4338 20.0909 24.4354ZM11.3204 23.833C9.97224 24.2543 8.99079 25.2358 7.50559 26.7212L4.70989 29.5005L3.09639 27.8922L5.89329 25.1117C7.43669 23.5681 8.33199 22.4578 8.64229 21.0161C8.93044 19.6782 8.68159 18.2302 8.07479 15.923L16.3259 24.1963C14.1434 23.6268 12.6728 23.4104 11.3204 23.833Z" fill="#7AC7C4"/>
</svg>
