<svg width="26" height="27" viewBox="0 0 26 27" fill="none" xmlns="http://www.w3.org/2000/svg">
<g clip-path="url(#clip0_921_517)">
<rect width="26" height="27" rx="10" fill="#7AC7C4"/>
<path d="M18.8006 18.4884L16.5877 16.28C17.4467 15.2025 17.8627 13.8348 17.7501 12.4581C17.6376 11.0815 17.0051 9.80059 15.9826 8.87875C14.9602 7.95692 13.6256 7.46424 12.2532 7.50202C10.8808 7.53981 9.57495 8.10518 8.60416 9.08189C7.63337 10.0586 7.07142 11.3724 7.03387 12.7532C6.99632 14.1339 7.48601 15.4767 8.40226 16.5053C9.31851 17.534 10.5917 18.1704 11.96 18.2836C13.3282 18.3968 14.6876 17.9783 15.7586 17.1141L17.9536 19.3225C18.0091 19.3787 18.075 19.4234 18.1477 19.4538C18.2204 19.4843 18.2984 19.5 18.3771 19.5C18.4559 19.5 18.5338 19.4843 18.6065 19.4538C18.6792 19.4234 18.7452 19.3787 18.8006 19.3225C18.9081 19.2106 18.9682 19.0611 18.9682 18.9054C18.9682 18.7498 18.9081 18.6003 18.8006 18.4884ZM12.4125 17.1141C11.5867 17.1141 10.7795 16.8678 10.0929 16.4062C9.40624 15.9446 8.87109 15.2885 8.55507 14.521C8.23906 13.7534 8.15638 12.9088 8.31748 12.0939C8.47858 11.2791 8.87623 10.5306 9.46015 9.9431C10.0441 9.35562 10.788 8.95554 11.5979 8.79346C12.4079 8.63137 13.2474 8.71456 14.0103 9.0325C14.7732 9.35044 15.4253 9.88885 15.8841 10.5797C16.3429 11.2705 16.5877 12.0826 16.5877 12.9134C16.5877 14.0275 16.1478 15.096 15.3648 15.8838C14.5818 16.6716 13.5198 17.1141 12.4125 17.1141Z" fill="#F3F3F3"/>
</g>
<defs>
<clipPath id="clip0_921_517">
<rect width="26" height="27" rx="10" fill="white"/>
</clipPath>
</defs>
</svg>
