<svg width="19" height="17" viewBox="0 0 19 17" fill="none" xmlns="http://www.w3.org/2000/svg">
<path d="M18.4899 8.71728C18.4879 8.82956 18.4529 8.93876 18.3893 9.03133C18.3257 9.12389 18.2363 9.19574 18.1323 9.23794L1.5049 16.0236C1.35844 16.0833 1.19835 16.1015 1.04224 16.0761C0.886131 16.0507 0.74006 15.9827 0.620102 15.8797C0.500144 15.7766 0.410951 15.6424 0.362339 15.4919C0.313727 15.3414 0.307583 15.1804 0.344578 15.0266L1.93299 8.42932L0.576615 1.78079C0.544748 1.62565 0.556362 1.46473 0.610169 1.31577C0.663977 1.1668 0.757889 1.0356 0.881542 0.936623C1.0052 0.83765 1.15378 0.774755 1.31091 0.754883C1.46804 0.73501 1.62759 0.758932 1.77198 0.824006L18.1499 8.1853C18.2524 8.2311 18.3392 8.306 18.3995 8.40072C18.4598 8.49544 18.491 8.60579 18.4891 8.71808L18.4899 8.71728ZM2.96831 9.0196L1.58963 14.75L15.1137 9.23084L2.96831 9.0196ZM15.1338 8.08502L1.81124 2.09893L2.99001 7.87381L15.1346 8.08584L15.1338 8.08502Z" fill="#E5E5E5"/>
</svg>
