<svg width="80" height="30" viewBox="0 0 83 42" fill="none" xmlns="http://www.w3.org/2000/svg">
<path d="M20.8869 19.2657C20.8869 22.7205 18.0862 25.5211 14.6314 25.5211C11.1766 25.5211 8.37598 22.7205 8.37598 19.2657C8.37598 15.8109 11.1766 13.0102 14.6314 13.0102C18.0862 13.0102 20.8869 15.8109 20.8869 19.2657Z" fill="#D9D9D9"/>
<path d="M4.87742e-06 22.5194C4.87742e-06 20.4465 1.6804 18.7661 3.75328 18.7661V18.7661C5.82615 18.7661 7.50655 20.4465 7.50655 22.5194V33.7792C7.50655 35.8521 5.82615 37.5325 3.75328 37.5325V37.5325C1.6804 37.5325 4.87742e-06 35.8521 4.87742e-06 33.7792V22.5194Z" fill="#7AC7C4"/>
<path d="M21.2686 3.75327C21.2686 1.6804 22.949 0 25.0218 0V0C27.0947 0 28.7751 1.6804 28.7751 3.75327V15.0131C28.7751 17.086 27.0947 18.7664 25.0218 18.7664V18.7664C22.949 18.7664 21.2686 17.086 21.2686 15.0131V3.75327Z" fill="#7AC7C4"/>
<path d="M19.2733 38.1582V27.2491H23.3642C24.2022 27.2491 24.9054 27.4054 25.4735 27.7179C26.0453 28.0304 26.4767 28.46 26.7679 29.0069C27.0627 29.5502 27.2101 30.1681 27.2101 30.8606C27.2101 31.5602 27.0627 32.1816 26.7679 32.725C26.4732 33.2683 26.0382 33.6962 25.4629 34.0087C24.8876 34.3176 24.1792 34.4721 23.3375 34.4721H20.6262V32.8475H23.0712C23.5613 32.8475 23.9625 32.7623 24.275 32.5918C24.5875 32.4213 24.8184 32.187 24.9675 31.8887C25.1202 31.5904 25.1966 31.2477 25.1966 30.8606C25.1966 30.4735 25.1202 30.1326 24.9675 29.8379C24.8184 29.5431 24.5858 29.3141 24.2697 29.1507C23.9572 28.9838 23.5542 28.9004 23.0605 28.9004H21.2495V38.1582H19.2733ZM29.5914 38.1582V29.9764H31.5196V38.1582H29.5914ZM30.5608 28.8152C30.2554 28.8152 29.9926 28.714 29.7725 28.5115C29.5523 28.3056 29.4422 28.0588 29.4422 27.7711C29.4422 27.4799 29.5523 27.2331 29.7725 27.0307C29.9926 26.8248 30.2554 26.7218 30.5608 26.7218C30.8698 26.7218 31.1325 26.8248 31.3492 27.0307C31.5693 27.2331 31.6794 27.4799 31.6794 27.7711C31.6794 28.0588 31.5693 28.3056 31.3492 28.5115C31.1325 28.714 30.8698 28.8152 30.5608 28.8152ZM36.1808 33.3642V38.1582H34.2525V29.9764H36.0955V31.3667H36.1914C36.3796 30.9086 36.6797 30.5446 37.0916 30.2747C37.5071 30.0048 38.0202 29.8699 38.631 29.8699C39.1957 29.8699 39.6875 29.9906 40.1065 30.2321C40.5291 30.4735 40.8558 30.8233 41.0866 31.2814C41.321 31.7395 41.4364 32.2953 41.4329 32.9487V38.1582H39.5046V33.247C39.5046 32.7001 39.3626 32.2722 39.0785 31.9632C38.7979 31.6543 38.4091 31.4998 37.9119 31.4998C37.5746 31.4998 37.2745 31.5744 37.0117 31.7235C36.7525 31.8691 36.5483 32.0804 36.3991 32.3574C36.2536 32.6344 36.1808 32.97 36.1808 33.3642ZM47.7013 41.3968C47.0089 41.3968 46.4141 41.3027 45.9169 41.1145C45.4197 40.9299 45.0202 40.6813 44.7184 40.3688C44.4165 40.0563 44.207 39.71 44.0898 39.3301L45.8263 38.9093C45.9045 39.0691 46.0181 39.2271 46.1673 39.3833C46.3164 39.5431 46.517 39.6745 46.7692 39.7775C47.0249 39.8841 47.3462 39.9373 47.7333 39.9373C48.2802 39.9373 48.733 39.8042 49.0916 39.5378C49.4503 39.275 49.6296 38.8418 49.6296 38.2381V36.688H49.5337C49.4343 36.8869 49.2887 37.0911 49.0969 37.3006C48.9087 37.5101 48.6584 37.6859 48.3459 37.8279C48.0369 37.97 47.6481 38.041 47.1793 38.041C46.5508 38.041 45.9808 37.8936 45.4695 37.5989C44.9616 37.3006 44.5568 36.8567 44.255 36.2672C43.9567 35.6742 43.8075 34.932 43.8075 34.0407C43.8075 33.1422 43.9567 32.3841 44.255 31.7662C44.5568 31.1447 44.9634 30.6742 45.4748 30.3546C45.9862 30.0314 46.5561 29.8699 47.1847 29.8699C47.6641 29.8699 48.0582 29.9515 48.3672 30.1149C48.6797 30.2747 48.9283 30.4682 49.1129 30.6955C49.2976 30.9192 49.4379 31.1305 49.5337 31.3294H49.6403V29.9764H51.5419V38.2914C51.5419 38.9909 51.375 39.5698 51.0412 40.0279C50.7074 40.486 50.2511 40.8287 49.6722 41.0559C49.0934 41.2832 48.4364 41.3968 47.7013 41.3968ZM47.7173 36.5282C48.1257 36.5282 48.4737 36.4288 48.7614 36.2299C49.049 36.0311 49.2674 35.7452 49.4165 35.3723C49.5657 34.9995 49.6403 34.552 49.6403 34.03C49.6403 33.5151 49.5657 33.0641 49.4165 32.677C49.271 32.29 49.0543 31.9899 48.7667 31.7768C48.4826 31.5602 48.1328 31.4519 47.7173 31.4519C47.2876 31.4519 46.929 31.5637 46.6413 31.7875C46.3537 32.0112 46.1371 32.3184 45.9915 32.709C45.8459 33.0961 45.7731 33.5364 45.7731 34.03C45.7731 34.5307 45.8459 34.9693 45.9915 35.3457C46.1406 35.7186 46.359 36.0098 46.6467 36.2193C46.9379 36.4252 47.2947 36.5282 47.7173 36.5282Z" fill="#EA5581"/>
<path d="M36.3333 23.6479V12.7389H40.4242C41.2623 12.7389 41.9654 12.8951 42.5336 13.2076C43.1053 13.5201 43.5368 13.9498 43.828 14.4967C44.1227 15.04 44.2701 15.6579 44.2701 16.3504C44.2701 17.0499 44.1227 17.6714 43.828 18.2147C43.5332 18.758 43.0982 19.1859 42.5229 19.4984C41.9477 19.8074 41.2392 19.9619 40.3976 19.9619H37.6863V18.3372H40.1313C40.6213 18.3372 41.0226 18.252 41.3351 18.0815C41.6476 17.9111 41.8784 17.6767 42.0276 17.3784C42.1803 17.0801 42.2566 16.7374 42.2566 16.3504C42.2566 15.9633 42.1803 15.6224 42.0276 15.3276C41.8784 15.0329 41.6458 14.8038 41.3298 14.6405C41.0173 14.4736 40.6142 14.3901 40.1206 14.3901H38.3095V23.6479H36.3333ZM50.1031 23.8078C49.3041 23.8078 48.6116 23.632 48.0257 23.2804C47.4398 22.9288 46.9852 22.437 46.6621 21.8049C46.3425 21.1728 46.1827 20.4342 46.1827 19.589C46.1827 18.7438 46.3425 18.0034 46.6621 17.3678C46.9852 16.7321 47.4398 16.2385 48.0257 15.8869C48.6116 15.5354 49.3041 15.3596 50.1031 15.3596C50.9021 15.3596 51.5946 15.5354 52.1805 15.8869C52.7665 16.2385 53.2192 16.7321 53.5388 17.3678C53.862 18.0034 54.0236 18.7438 54.0236 19.589C54.0236 20.4342 53.862 21.1728 53.5388 21.8049C53.2192 22.437 52.7665 22.9288 52.1805 23.2804C51.5946 23.632 50.9021 23.8078 50.1031 23.8078ZM50.1138 22.263C50.547 22.263 50.9092 22.144 51.2004 21.9061C51.4916 21.6646 51.7082 21.3415 51.8503 20.9367C51.9959 20.5318 52.0687 20.0808 52.0687 19.5837C52.0687 19.083 51.9959 18.6302 51.8503 18.2254C51.7082 17.817 51.4916 17.4921 51.2004 17.2506C50.9092 17.0091 50.547 16.8884 50.1138 16.8884C49.6699 16.8884 49.3006 17.0091 49.0058 17.2506C48.7146 17.4921 48.4962 17.817 48.3506 18.2254C48.2086 18.6302 48.1376 19.083 48.1376 19.5837C48.1376 20.0808 48.2086 20.5318 48.3506 20.9367C48.4962 21.3415 48.7146 21.6646 49.0058 21.9061C49.3006 22.144 49.6699 22.263 50.1138 22.263ZM58.3385 18.8539V23.6479H56.4102V15.4661H58.2532V16.8564H58.3491C58.5373 16.3983 58.8374 16.0343 59.2493 15.7644C59.6648 15.4945 60.178 15.3596 60.7888 15.3596C61.3534 15.3596 61.8452 15.4803 62.2642 15.7218C62.6868 15.9633 63.0135 16.3131 63.2444 16.7712C63.4787 17.2293 63.5941 17.785 63.5906 18.4384V23.6479H61.6623V18.7367C61.6623 18.1899 61.5203 17.7619 61.2362 17.453C60.9557 17.144 60.5668 16.9896 60.0696 16.9896C59.7323 16.9896 59.4322 17.0641 59.1694 17.2133C58.9102 17.3589 58.706 17.5702 58.5569 17.8472C58.4113 18.1242 58.3385 18.4597 58.3385 18.8539ZM69.8591 26.8866C69.1666 26.8866 68.5718 26.7925 68.0746 26.6043C67.5775 26.4196 67.178 26.171 66.8761 25.8585C66.5743 25.546 66.3647 25.1998 66.2476 24.8198L67.9841 24.399C68.0622 24.5588 68.1758 24.7168 68.325 24.8731C68.4741 25.0329 68.6748 25.1643 68.9269 25.2673C69.1826 25.3738 69.504 25.4271 69.891 25.4271C70.4379 25.4271 70.8907 25.2939 71.2493 25.0276C71.608 24.7648 71.7873 24.3315 71.7873 23.7278V22.1778H71.6915C71.592 22.3766 71.4464 22.5808 71.2547 22.7903C71.0665 22.9999 70.8161 23.1756 70.5036 23.3177C70.1946 23.4597 69.8058 23.5308 69.337 23.5308C68.7085 23.5308 68.1385 23.3834 67.6272 23.0886C67.1194 22.7903 66.7145 22.3465 66.4127 21.757C66.1144 21.1639 65.9652 20.4217 65.9652 19.5304C65.9652 18.632 66.1144 17.8738 66.4127 17.2559C66.7145 16.6345 67.1211 16.1639 67.6325 15.8443C68.1439 15.5212 68.7138 15.3596 69.3424 15.3596C69.8218 15.3596 70.216 15.4413 70.5249 15.6046C70.8374 15.7644 71.086 15.958 71.2706 16.1852C71.4553 16.409 71.5956 16.6203 71.6915 16.8191H71.798V15.4661H73.6996V23.7811C73.6996 24.4807 73.5327 25.0595 73.1989 25.5176C72.8651 25.9757 72.4088 26.3184 71.8299 26.5457C71.2511 26.7729 70.5941 26.8866 69.8591 26.8866ZM69.875 22.018C70.2834 22.018 70.6314 21.9185 70.9191 21.7197C71.2067 21.5208 71.4251 21.235 71.5743 20.8621C71.7234 20.4892 71.798 20.0418 71.798 19.5198C71.798 19.0048 71.7234 18.5538 71.5743 18.1668C71.4287 17.7797 71.212 17.4796 70.9244 17.2666C70.6403 17.0499 70.2905 16.9416 69.875 16.9416C69.4454 16.9416 69.0867 17.0535 68.7991 17.2772C68.5114 17.5009 68.2948 17.8081 68.1492 18.1987C68.0036 18.5858 67.9308 19.0261 67.9308 19.5198C67.9308 20.0205 68.0036 20.459 68.1492 20.8354C68.2983 21.2083 68.5167 21.4995 68.8044 21.709C69.0956 21.915 69.4525 22.018 69.875 22.018Z" fill="#7AC7C4"/>
</svg>
