<svg width="128" height="28" viewBox="0 0 128 28" fill="none" xmlns="http://www.w3.org/2000/svg">
<path d="M30.0523 14.1737C30.0523 18.2078 27.0624 21.4781 23.3741 21.4781C19.6858 21.4781 16.6958 18.2078 16.6958 14.1737C16.6958 10.1396 19.6858 6.86937 23.3741 6.86937C27.0624 6.86937 30.0523 10.1396 30.0523 14.1737Z" fill="#D9D9D9"/>
<path d="M8.67848e-06 9.73901H13.3565V27.9999H8.67848e-06V9.73901Z" fill="#7AC7C4"/>
<path d="M33.3911 0H46.7476V18.7826H33.3911V0Z" fill="#7AC7C4"/>
<path d="M52.2741 27.8202V17.3202H53.4076V18.5332H53.5468C53.633 18.4007 53.7523 18.2316 53.9047 18.0261C54.0605 17.8173 54.2826 17.6317 54.5709 17.4693C54.8626 17.3036 55.257 17.2207 55.7542 17.2207C56.3972 17.2207 56.9639 17.3815 57.4545 17.703C57.945 18.0245 58.3278 18.4802 58.6029 19.0702C58.878 19.6601 59.0155 20.3562 59.0155 21.1582C59.0155 21.967 58.878 22.668 58.6029 23.2612C58.3278 23.8512 57.9466 24.3086 57.4594 24.6334C56.9722 24.9549 56.4104 25.1156 55.7741 25.1156C55.2835 25.1156 54.8908 25.0344 54.5958 24.872C54.3008 24.7063 54.0738 24.519 53.9147 24.3102C53.7556 24.0981 53.633 23.9225 53.5468 23.7832H53.4474V27.8202H52.2741ZM53.4275 21.1384C53.4275 21.7151 53.512 22.2238 53.681 22.6646C53.8501 23.1021 54.097 23.4452 54.4218 23.6938C54.7466 23.939 55.1443 24.0617 55.615 24.0617C56.1055 24.0617 56.5148 23.9324 56.843 23.6739C57.1744 23.412 57.423 23.0607 57.5887 22.6199C57.7577 22.1758 57.8422 21.6819 57.8422 21.1384C57.8422 20.6014 57.7594 20.1175 57.5937 19.6867C57.4313 19.2525 57.1843 18.9094 56.8529 18.6575C56.5248 18.4023 56.1121 18.2747 55.615 18.2747C55.1377 18.2747 54.7367 18.3957 54.4118 18.6377C54.087 18.8763 53.8418 19.211 53.676 19.6419C53.5103 20.0695 53.4275 20.5683 53.4275 21.1384ZM61.5053 24.9565V17.3202H62.6786V24.9565H61.5053ZM62.1019 16.0475C61.8732 16.0475 61.676 15.9696 61.5103 15.8138C61.3479 15.658 61.2667 15.4707 61.2667 15.252C61.2667 15.0332 61.3479 14.846 61.5103 14.6902C61.676 14.5344 61.8732 14.4565 62.1019 14.4565C62.3306 14.4565 62.5261 14.5344 62.6885 14.6902C62.8543 14.846 62.9371 15.0332 62.9371 15.252C62.9371 15.4707 62.8543 15.658 62.6885 15.8138C62.5261 15.9696 62.3306 16.0475 62.1019 16.0475ZM66.7009 20.3628V24.9565H65.5276V17.3202H66.6611V18.5134H66.7605C66.9395 18.1256 67.2113 17.814 67.5759 17.5787C67.9405 17.3401 68.4111 17.2207 68.9878 17.2207C69.5048 17.2207 69.9573 17.3268 70.345 17.5389C70.7328 17.7477 71.0344 18.0659 71.2499 18.4935C71.4653 18.9177 71.573 19.4546 71.573 20.1043V24.9565H70.3997V20.1838C70.3997 19.5839 70.244 19.1166 69.9324 18.7818C69.6209 18.4438 69.1933 18.2747 68.6497 18.2747C68.2752 18.2747 67.9405 18.3559 67.6455 18.5183C67.3538 18.6807 67.1235 18.9177 66.9544 19.2293C66.7854 19.5408 66.7009 19.9187 66.7009 20.3628ZM77.4994 27.9793C76.9327 27.9793 76.4454 27.9064 76.0378 27.7605C75.6301 27.618 75.2904 27.4291 75.0186 27.1938C74.7501 26.9618 74.5363 26.7132 74.3773 26.448L75.3119 25.7918C75.418 25.931 75.5522 26.0901 75.7146 26.269C75.877 26.4513 76.0991 26.6088 76.3808 26.7413C76.6658 26.8772 77.0387 26.9452 77.4994 26.9452C78.1159 26.9452 78.6247 26.796 79.0257 26.4977C79.4267 26.1994 79.6273 25.7321 79.6273 25.0957V23.5446H79.5278C79.4416 23.6838 79.319 23.8562 79.1599 24.0617C79.0041 24.2638 78.7788 24.4445 78.4838 24.6036C78.1921 24.7593 77.7977 24.8372 77.3006 24.8372C76.6841 24.8372 76.1306 24.6914 75.64 24.3997C75.1528 24.1081 74.7667 23.6838 74.4817 23.127C74.1999 22.5702 74.0591 21.894 74.0591 21.0986C74.0591 20.3164 74.1966 19.6353 74.4717 19.0553C74.7468 18.4719 75.1296 18.0212 75.6202 17.703C76.1107 17.3815 76.6774 17.2207 77.3204 17.2207C77.8176 17.2207 78.212 17.3036 78.5037 17.4693C78.7987 17.6317 79.024 17.8173 79.1798 18.0261C79.3389 18.2316 79.4615 18.4007 79.5477 18.5332H79.667V17.3202H80.8006V25.1753C80.8006 25.8315 80.6514 26.3652 80.3531 26.7761C80.0581 27.1904 79.6604 27.4937 79.1599 27.6859C78.6628 27.8815 78.1093 27.9793 77.4994 27.9793ZM77.4596 23.7832C77.9303 23.7832 78.328 23.6755 78.6528 23.4601C78.9776 23.2447 79.2246 22.9348 79.3936 22.5304C79.5626 22.1261 79.6471 21.6421 79.6471 21.0787C79.6471 20.5285 79.5643 20.043 79.3986 19.622C79.2328 19.2011 78.9876 18.8713 78.6628 18.6327C78.338 18.394 77.9369 18.2747 77.4596 18.2747C76.9625 18.2747 76.5482 18.4007 76.2167 18.6526C75.8886 18.9045 75.6417 19.2425 75.476 19.6668C75.3136 20.091 75.2324 20.5617 75.2324 21.0787C75.2324 21.609 75.3152 22.078 75.4809 22.4857C75.65 22.89 75.8986 23.2082 76.2267 23.4402C76.5581 23.6689 76.9691 23.7832 77.4596 23.7832Z" fill="#EA5581"/>
<path d="M87.8912 17.516V7.01598H89.0248V8.22905H89.164C89.2501 8.09647 89.3695 7.92744 89.5219 7.72195C89.6777 7.51314 89.8998 7.32753 90.1881 7.16513C90.4798 6.99941 90.8742 6.91655 91.3714 6.91655C92.0144 6.91655 92.5811 7.0773 93.0716 7.39879C93.5622 7.72029 93.945 8.17602 94.2201 8.76598C94.4952 9.35594 94.6327 10.052 94.6327 10.854C94.6327 11.6628 94.4952 12.3638 94.2201 12.957C93.945 13.547 93.5638 14.0044 93.0766 14.3292C92.5894 14.6507 92.0276 14.8114 91.3912 14.8114C90.9007 14.8114 90.508 14.7302 90.213 14.5678C89.918 14.4021 89.691 14.2148 89.5319 14.006C89.3728 13.7939 89.2501 13.6183 89.164 13.479H89.0645V17.516H87.8912ZM89.0447 10.8342C89.0447 11.4109 89.1292 11.9196 89.2982 12.3604C89.4672 12.7979 89.7142 13.141 90.039 13.3896C90.3638 13.6348 90.7615 13.7575 91.2322 13.7575C91.7227 13.7575 92.132 13.6282 92.4601 13.3697C92.7916 13.1078 93.0402 12.7565 93.2059 12.3157C93.3749 11.8716 93.4594 11.3777 93.4594 10.8342C93.4594 10.2972 93.3766 9.81333 93.2108 9.38246C93.0484 8.94827 92.8015 8.60523 92.4701 8.35334C92.142 8.09813 91.7293 7.97053 91.2322 7.97053C90.7549 7.97053 90.3538 8.0915 90.029 8.33345C89.7042 8.57209 89.459 8.90684 89.2932 9.33771C89.1275 9.76527 89.0447 10.2641 89.0447 10.8342ZM100.225 14.8114C99.5354 14.8114 98.9305 14.6474 98.4101 14.3192C97.8931 13.9911 97.4887 13.5321 97.1971 12.9421C96.9087 12.3522 96.7645 11.6628 96.7645 10.8739C96.7645 10.0785 96.9087 9.38411 97.1971 8.79084C97.4887 8.19756 97.8931 7.73686 98.4101 7.40874C98.9305 7.08061 99.5354 6.91655 100.225 6.91655C100.914 6.91655 101.517 7.08061 102.034 7.40874C102.555 7.73686 102.959 8.19756 103.247 8.79084C103.539 9.38411 103.685 10.0785 103.685 10.8739C103.685 11.6628 103.539 12.3522 103.247 12.9421C102.959 13.5321 102.555 13.9911 102.034 14.3192C101.517 14.6474 100.914 14.8114 100.225 14.8114ZM100.225 13.7575C100.748 13.7575 101.179 13.6232 101.517 13.3548C101.855 13.0863 102.106 12.7333 102.268 12.2958C102.43 11.8583 102.512 11.3844 102.512 10.8739C102.512 10.3635 102.43 9.8879 102.268 9.44709C102.106 9.00627 101.855 8.64998 101.517 8.3782C101.179 8.10642 100.748 7.97053 100.225 7.97053C99.7011 7.97053 99.2702 8.10642 98.9322 8.3782C98.5941 8.64998 98.3439 9.00627 98.1814 9.44709C98.019 9.8879 97.9378 10.3635 97.9378 10.8739C97.9378 11.3844 98.019 11.8583 98.1814 12.2958C98.3439 12.7333 98.5941 13.0863 98.9322 13.3548C99.2702 13.6232 99.7011 13.7575 100.225 13.7575ZM107.349 10.0586V14.6523H106.176V7.01598H107.31V8.20916H107.409C107.588 7.82138 107.86 7.50982 108.224 7.2745C108.589 7.03587 109.06 6.91655 109.636 6.91655C110.153 6.91655 110.606 7.02261 110.993 7.23473C111.381 7.44354 111.683 7.76172 111.898 8.18928C112.114 8.61352 112.221 9.15045 112.221 9.80007V14.6523H111.048V9.87962C111.048 9.27971 110.892 8.81238 110.581 8.47763C110.269 8.13956 109.842 7.97053 109.298 7.97053C108.924 7.97053 108.589 8.05173 108.294 8.21413C108.002 8.37654 107.772 8.61352 107.603 8.92507C107.434 9.23662 107.349 9.61446 107.349 10.0586ZM118.148 17.6751C117.581 17.6751 117.094 17.6022 116.686 17.4563C116.279 17.3138 115.939 17.1249 115.667 16.8896C115.399 16.6576 115.185 16.409 115.026 16.1438L115.96 15.4876C116.066 15.6268 116.201 15.7859 116.363 15.9648C116.525 16.1471 116.748 16.3046 117.029 16.4371C117.314 16.573 117.687 16.641 118.148 16.641C118.764 16.641 119.273 16.4918 119.674 16.1935C120.075 15.8952 120.276 15.4279 120.276 14.7915V13.2404H120.176C120.09 13.3796 119.967 13.552 119.808 13.7575C119.653 13.9596 119.427 14.1403 119.132 14.2994C118.841 14.4551 118.446 14.533 117.949 14.533C117.333 14.533 116.779 14.3872 116.288 14.0955C115.801 13.8039 115.415 13.3796 115.13 12.8228C114.848 12.266 114.708 11.5898 114.708 10.7944C114.708 10.0122 114.845 9.33108 115.12 8.75107C115.395 8.16773 115.778 7.71697 116.269 7.39879C116.759 7.0773 117.326 6.91655 117.969 6.91655C118.466 6.91655 118.86 6.99941 119.152 7.16513C119.447 7.32753 119.672 7.51314 119.828 7.72195C119.987 7.92744 120.11 8.09647 120.196 8.22905H120.315V7.01598H121.449V14.8711C121.449 15.5273 121.3 16.061 121.002 16.4719C120.707 16.8862 120.309 17.1895 119.808 17.3817C119.311 17.5773 118.758 17.6751 118.148 17.6751ZM118.108 13.479C118.579 13.479 118.976 13.3713 119.301 13.1559C119.626 12.9405 119.873 12.6306 120.042 12.2262C120.211 11.8219 120.296 11.3379 120.296 10.7745C120.296 10.2243 120.213 9.73875 120.047 9.31783C119.881 8.8969 119.636 8.56712 119.311 8.32848C118.986 8.08984 118.585 7.97053 118.108 7.97053C117.611 7.97053 117.197 8.09647 116.865 8.34837C116.537 8.60026 116.29 8.93833 116.124 9.36257C115.962 9.78681 115.881 10.2575 115.881 10.7745C115.881 11.3048 115.964 11.7738 116.129 12.1815C116.298 12.5858 116.547 12.904 116.875 13.136C117.207 13.3647 117.618 13.479 118.108 13.479Z" fill="#7AC7C4"/>
</svg>
 