<svg width="40" height="40" viewBox="0 0 40 40" fill="none" xmlns="http://www.w3.org/2000/svg">
<path d="M39 17.398C38.9988 17.3972 38.9978 17.3959 38.9969 17.395L22.6801 1.07891C21.9846 0.382969 21.0599 0 20.0763 0C19.0928 0 18.1681 0.382969 17.4723 1.07883L1.16393 17.3867C1.15846 17.3922 1.15268 17.398 1.14752 17.4035C-0.280759 18.8399 -0.278259 21.1705 1.15455 22.6034C1.80909 23.2583 2.6733 23.6373 3.59776 23.6773C3.63557 23.6809 3.67346 23.6827 3.71159 23.6827H4.36159V35.6902C4.36159 38.0666 6.29518 39.9999 8.67159 39.9999H15.0553C15.7025 39.9999 16.2271 39.475 16.2271 38.828V29.4141C16.2271 28.3298 17.1094 27.4478 18.1937 27.4478H21.9589C23.0433 27.4478 23.9252 28.3298 23.9252 29.4141V38.8281C23.9252 39.4751 24.4498 40 25.0971 40H31.4807C33.8574 40 35.7907 38.0667 35.7907 35.6903V23.6828H36.3938C37.3771 23.6828 38.3017 23.2998 38.9978 22.6037C40.4322 21.1687 40.4328 18.8338 38.9999 17.398L39 17.398ZM37.3404 20.9466C37.2164 21.0714 37.0689 21.1703 36.9064 21.2377C36.7439 21.3051 36.5697 21.3395 36.3938 21.3391H34.6188C33.9715 21.3391 33.4469 21.8637 33.4469 22.511V35.6903C33.4469 36.7743 32.5649 37.6562 31.4806 37.6562H26.2689V29.4141C26.2689 27.0377 24.3356 25.1041 21.9588 25.1041H18.1938C15.8171 25.1041 13.8835 27.0377 13.8835 29.4141V37.6562H8.67174C7.58768 37.6562 6.70541 36.7742 6.70541 35.6903V22.5109C6.70541 21.8636 6.1808 21.3391 5.53354 21.3391H3.78909C3.7708 21.3378 3.75249 21.3369 3.73416 21.3366C3.38502 21.3305 3.0576 21.192 2.81229 20.9462C2.29041 20.4244 2.29041 19.5752 2.81229 19.053C2.81252 19.053 2.81252 19.0527 2.81284 19.0523L2.81377 19.0514L19.1299 2.73594C19.2539 2.61117 19.4014 2.51226 19.5638 2.44494C19.7263 2.37762 19.9005 2.34322 20.0763 2.34375C20.4337 2.34375 20.7697 2.48289 21.0227 2.73594L37.3352 19.0481L37.3428 19.0555C37.862 19.5783 37.861 20.4258 37.3404 20.9466Z" fill="#7AC7C4"/>
</svg>