<svg width="40" height="40" viewBox="0 0 40 40" fill="none" xmlns="http://www.w3.org/2000/svg">
<path d="M19.9697 0.000129532C19.4398 0.0061374 18.9339 0.222732 18.5627 0.602479C18.1915 0.982227 17.9854 1.49417 17.9894 2.02621V18.1063C17.9894 18.6396 18.2004 19.1511 18.5761 19.5283C18.9517 19.9054 19.4612 20.1172 19.9924 20.1172C20.5237 20.1172 21.0331 19.9054 21.4088 19.5283C21.7844 19.1511 21.9954 18.6396 21.9954 18.1063V2.02621C21.9975 1.75893 21.9464 1.49393 21.8452 1.24669C21.744 0.999464 21.5948 0.774964 21.4062 0.58632C21.2176 0.397676 20.9934 0.248674 20.7467 0.148024C20.5001 0.0473739 20.236 -0.00290404 19.9697 0.000129532ZM31.6402 4.02204C31.5747 4.01881 31.5091 4.01881 31.4437 4.02204C31.047 4.05517 30.6691 4.20619 30.3583 4.45585C30.0475 4.7055 29.8179 5.04246 29.6986 5.42373C29.5794 5.805 29.576 6.21329 29.6889 6.59649C29.8018 6.97969 30.0259 7.32043 30.3325 7.57523C33.8019 10.5312 35.9939 14.9311 35.9939 19.8678C35.9939 28.7885 28.8586 35.9781 20 35.9781C17.8925 35.9741 15.8064 35.5544 13.8613 34.7429C11.9162 33.9315 10.1503 32.7442 8.66463 31.2491C7.17896 29.754 6.00275 27.9805 5.20336 26.0301C4.40397 24.0797 3.9971 21.9908 4.00605 19.8829C4.00605 14.9689 6.1678 10.5992 9.59939 7.63571C9.81287 7.46867 9.99042 7.25993 10.1213 7.02209C10.2522 6.78425 10.3337 6.52224 10.3609 6.25189C10.3882 5.98154 10.3605 5.70846 10.2797 5.44913C10.1989 5.18979 10.0666 4.9496 9.89073 4.74303C9.71488 4.53647 9.49915 4.36783 9.25658 4.2473C9.01401 4.12677 8.74962 4.05684 8.47938 4.04174C8.20915 4.02664 7.93866 4.06669 7.68427 4.15945C7.42987 4.25222 7.19684 4.39578 6.99925 4.58148C4.80156 6.47566 3.03852 8.82196 1.83057 11.4601C0.62262 14.0983 -0.00178292 16.9661 1.30778e-05 19.8678C-0.00604968 25.1881 2.09609 30.294 5.84608 34.0674C9.59606 37.8407 14.6883 39.974 20.0075 40C25.326 39.976 30.4179 37.8429 34.1659 34.0686C37.9139 30.2944 40.012 25.1873 39.9999 19.8678C39.9999 13.7291 37.2562 8.21027 32.9251 4.521C32.5691 4.20737 32.1138 4.03059 31.6402 4.02204Z" fill="#FF2763"/>
</svg>
