<svg width="40" height="40" viewBox="0 0 40 40" fill="none" xmlns="http://www.w3.org/2000/svg">
<path d="M39.1811 29.509L36.4637 25.9953C36.0927 25.5177 35.8931 24.9496 35.8916 24.3671V14.2832C35.8916 10.495 34.2173 6.86205 31.237 4.18344C28.2568 1.50483 24.2147 0 20 0C15.7853 0 11.7432 1.50483 8.76296 4.18344C5.78271 6.86205 4.10842 10.495 4.10842 14.2832V24.3671C4.10689 24.9496 3.90727 25.5177 3.53633 25.9953L0.818868 29.509C0.407402 29.9188 0.136829 30.4269 0.0398666 30.9719C-0.0570954 31.517 0.0237069 32.0756 0.272503 32.5802C0.521298 33.0849 0.927431 33.5139 1.44179 33.8155C1.95615 34.1171 2.5567 34.2783 3.17082 34.2796H12.2131C12.5779 35.894 13.5524 37.3454 14.9715 38.388C16.3906 39.4305 18.1671 40 20 40C21.8329 40 23.6094 39.4305 25.0285 38.388C26.4476 37.3454 27.4221 35.894 27.7869 34.2796H36.8292C37.4433 34.2783 38.0439 34.1171 38.5582 33.8155C39.0726 33.5139 39.4787 33.0849 39.7275 32.5802C39.9763 32.0756 40.0571 31.517 39.9601 30.9719C39.8632 30.4269 39.5926 29.9188 39.1811 29.509ZM20 37.1362C19.0164 37.1337 18.0577 36.8579 17.2554 36.3464C16.4531 35.835 15.8464 35.1131 15.5186 34.2796H24.4814C24.1536 35.1131 23.5469 35.835 22.7446 36.3464C21.9423 36.8579 20.9836 37.1337 20 37.1362ZM3.17082 31.4229C3.24265 31.363 3.30663 31.2959 3.36152 31.223L6.14255 27.6236C6.88443 26.6683 7.28367 25.532 7.28674 24.3671V14.2832C7.28674 11.2527 8.62617 8.34627 11.0104 6.20338C13.3946 4.06049 16.6282 2.85663 20 2.85663C23.3718 2.85663 26.6054 4.06049 28.9896 6.20338C31.3738 8.34627 32.7133 11.2527 32.7133 14.2832V24.3671C32.7163 25.532 33.1156 26.6683 33.8575 27.6236L36.6385 31.223C36.6934 31.2959 36.7574 31.363 36.8292 31.4229H3.17082Z" fill="#7AC7C4"/>
</svg>
