<svg width="40" height="40" viewBox="0 0 40 40" fill="none" xmlns="http://www.w3.org/2000/svg">
<path d="M36.0907 14.6667H35.92C35.6698 14.6645 35.4262 14.587 35.2207 14.4443C35.0152 14.3016 34.8575 14.1003 34.768 13.8667C34.6738 13.6411 34.6489 13.3926 34.6964 13.1527C34.7439 12.9129 34.8616 12.6927 35.0347 12.52L35.156 12.3987C35.8874 11.6645 36.2981 10.6703 36.2981 9.634C36.2981 8.59766 35.8874 7.60354 35.156 6.86933L33.1413 4.856C32.4077 4.12403 31.4137 3.71295 30.3773 3.71295C29.341 3.71295 28.347 4.12403 27.6133 4.856L27.492 4.97733C27.3132 5.14948 27.0881 5.26571 26.8442 5.31174C26.6004 5.35778 26.3484 5.33162 26.1192 5.23648C25.8899 5.14134 25.6935 4.98135 25.5539 4.77615C25.4143 4.57096 25.3376 4.32947 25.3333 4.08133V3.90933C25.3323 2.87284 24.9201 1.8791 24.1871 1.14619C23.4542 0.413274 22.4605 0.00105891 21.424 0H18.576C17.5395 0.00105891 16.5458 0.413274 15.8129 1.14619C15.0799 1.8791 14.6677 2.87284 14.6667 3.90933V4.08133C14.6602 4.32769 14.5824 4.56689 14.4428 4.76995C14.3031 4.97302 14.1076 5.13126 13.8799 5.2255C13.6522 5.31975 13.402 5.34596 13.1597 5.30097C12.9174 5.25598 12.6934 5.14171 12.5147 4.972L12.4 4.85067C11.6664 4.1187 10.6723 3.70762 9.636 3.70762C8.59966 3.70762 7.60564 4.1187 6.872 4.85067L4.85067 6.864C4.11927 7.59821 3.7086 8.59232 3.7086 9.62867C3.7086 10.665 4.11927 11.6591 4.85067 12.3933L4.972 12.5147C5.14674 12.6934 5.26369 12.9206 5.30768 13.1667C5.35167 13.4128 5.32065 13.6664 5.21867 13.8947C5.12717 14.122 4.96996 14.3169 4.76712 14.4544C4.56429 14.5919 4.32505 14.6658 4.08 14.6667H3.90933C2.87284 14.6677 1.8791 15.0799 1.14619 15.8129C0.413274 16.5458 0.00105891 17.5395 0 18.576V21.424C0.00105891 22.4605 0.413274 23.4542 1.14619 24.1871C1.8791 24.9201 2.87284 25.3323 3.90933 25.3333H4.08C4.33016 25.3355 4.57385 25.413 4.77933 25.5557C4.98481 25.6984 5.14255 25.8997 5.232 26.1333C5.32618 26.3589 5.35111 26.6074 5.30362 26.8473C5.25613 27.0871 5.13838 27.3073 4.96533 27.48L4.844 27.6013C4.1126 28.3355 3.70194 29.3297 3.70194 30.366C3.70194 31.4023 4.1126 32.3965 4.844 33.1307L6.85733 35.1427C7.59085 35.8754 8.58523 36.2869 9.622 36.2869C10.6588 36.2869 11.6531 35.8754 12.3867 35.1427L12.508 35.0213C12.6869 34.8468 12.914 34.7299 13.1601 34.6859C13.4061 34.6419 13.6597 34.6729 13.888 34.7747C14.1153 34.8658 14.3103 35.0227 14.4478 35.2253C14.5854 35.428 14.6592 35.6671 14.66 35.912V36.084C14.6596 36.5984 14.7607 37.1077 14.9574 37.583C15.154 38.0583 15.4425 38.4901 15.8062 38.8538C16.1699 39.2175 16.6017 39.506 17.077 39.7026C17.5523 39.8993 18.0616 40.0004 18.576 40H21.424C22.4605 39.9989 23.4542 39.5867 24.1871 38.8538C24.9201 38.1209 25.3323 37.1272 25.3333 36.0907V35.9187C25.3398 35.6723 25.4176 35.4331 25.5572 35.23C25.6969 35.027 25.8924 34.8687 26.1201 34.7745C26.3478 34.6803 26.598 34.654 26.8403 34.699C27.0826 34.744 27.3066 34.8583 27.4853 35.028L27.6067 35.1493C28.3403 35.8813 29.3343 36.2924 30.3707 36.2924C31.407 36.2924 32.401 35.8813 33.1347 35.1493L35.1493 33.1373C35.8807 32.4031 36.2914 31.409 36.2914 30.3727C36.2914 29.3363 35.8807 28.3422 35.1493 27.608L35.028 27.4867C34.8533 27.3079 34.7363 27.0807 34.6923 26.8346C34.6483 26.5885 34.6793 26.3349 34.7813 26.1067C34.8726 25.8791 35.0297 25.6839 35.2326 25.5462C35.4354 25.4084 35.6748 25.3343 35.92 25.3333H36.0907C37.1272 25.3323 38.1209 24.9201 38.8538 24.1871C39.5867 23.4542 39.9989 22.4605 40 21.424V18.576C39.9989 17.5395 39.5867 16.5458 38.8538 15.8129C38.1209 15.0799 37.1272 14.6677 36.0907 14.6667ZM37.3333 21.424C37.333 21.7535 37.2019 22.0693 36.969 22.3023C36.736 22.5353 36.4201 22.6663 36.0907 22.6667H35.92C35.1463 22.6733 34.3916 22.9074 33.75 23.34C33.1085 23.7726 32.6085 24.3845 32.3123 25.0994C32.0162 25.8142 31.937 26.6004 32.0846 27.36C32.2323 28.1195 32.6003 28.8188 33.1427 29.3707L33.2627 29.492C33.4954 29.7254 33.6262 30.0417 33.6262 30.3713C33.6262 30.701 33.4954 31.0172 33.2627 31.2507L31.248 33.2627C31.015 33.4957 30.6989 33.6266 30.3693 33.6266C30.0398 33.6266 29.7237 33.4957 29.4907 33.2627L29.3707 33.1413C28.8186 32.5996 28.1194 32.2322 27.36 32.0848C26.6007 31.9375 25.8148 32.0168 25.1002 32.3129C24.3856 32.6089 23.7738 33.1086 23.3411 33.7498C22.9084 34.3909 22.6739 35.1452 22.6667 35.9187V36.0907C22.6663 36.4201 22.5353 36.736 22.3023 36.969C22.0693 37.2019 21.7535 37.333 21.424 37.3333H18.576C18.2465 37.333 17.9307 37.2019 17.6977 36.969C17.4647 36.736 17.3337 36.4201 17.3333 36.0907V35.9187C17.3296 35.1436 17.097 34.387 16.6649 33.7436C16.2327 33.1003 15.6201 32.5989 14.904 32.3024C14.188 32.0058 13.4003 31.9274 12.6398 32.0769C11.8793 32.2264 11.1799 32.5972 10.6293 33.1427L10.508 33.264C10.2746 33.4964 9.95868 33.6268 9.62933 33.6268C9.29999 33.6268 8.98405 33.4964 8.75067 33.264L6.73733 31.252C6.50455 31.0186 6.37383 30.7023 6.37383 30.3727C6.37383 30.043 6.50455 29.7268 6.73733 29.4933L6.85867 29.372C7.40159 28.8201 7.76998 28.1206 7.91785 27.3607C8.06572 26.6008 7.98654 25.8142 7.69017 25.099C7.3938 24.3839 6.89338 23.7718 6.25135 23.3392C5.60933 22.9067 4.85413 22.6727 4.08 22.6667H3.90933C3.57987 22.6663 3.26399 22.5353 3.03103 22.3023C2.79806 22.0693 2.66702 21.7535 2.66667 21.424V18.576C2.66702 18.2465 2.79806 17.9307 3.03103 17.6977C3.26399 17.4647 3.57987 17.3337 3.90933 17.3333H4.08C4.85374 17.3267 5.60843 17.0926 6.24998 16.66C6.89153 16.2274 7.39154 15.6155 7.68769 14.9006C7.98385 14.1858 8.06303 13.3996 7.91537 12.64C7.7677 11.8805 7.39974 11.1812 6.85733 10.6293L6.73733 10.508C6.50463 10.2748 6.37395 9.95879 6.37395 9.62933C6.37395 9.29988 6.50463 8.98388 6.73733 8.75067L8.75067 6.736C8.98371 6.50297 9.29977 6.37206 9.62933 6.37206C9.95889 6.37206 10.275 6.50297 10.508 6.736L10.628 6.85733C11.1799 7.39948 11.8792 7.76726 12.6386 7.91486C13.3981 8.06247 14.1841 7.98338 14.899 7.68745C15.6138 7.39151 16.2257 6.89181 16.6586 6.25059C17.0915 5.60936 17.3261 4.85496 17.3333 4.08133V3.90933C17.3337 3.57987 17.4647 3.26399 17.6977 3.03103C17.9307 2.79806 18.2465 2.66702 18.576 2.66667H21.424C21.7535 2.66702 22.0693 2.79806 22.3023 3.03103C22.5353 3.26399 22.6663 3.57987 22.6667 3.90933V4.08133C22.6735 4.85496 22.9079 5.60947 23.3406 6.25082C23.7733 6.89216 24.3852 7.39198 25.1 7.68796C25.8148 7.98395 26.6009 8.06302 27.3603 7.91531C28.1197 7.76761 28.8189 7.39966 29.3707 6.85733L29.492 6.736C29.725 6.50297 30.0411 6.37206 30.3707 6.37206C30.7002 6.37206 31.0163 6.50297 31.2493 6.736L33.2627 8.75067C33.4954 8.98388 33.6261 9.29988 33.6261 9.62933C33.6261 9.95879 33.4954 10.2748 33.2627 10.508L33.1413 10.6293C32.5989 11.1813 32.2309 11.8807 32.0832 12.6403C31.9356 13.4 32.0149 14.1863 32.3112 14.9012C32.6076 15.6161 33.1078 16.228 33.7495 16.6605C34.3913 17.093 35.1461 17.327 35.92 17.3333H36.0907C36.4201 17.3337 36.736 17.4647 36.969 17.6977C37.2019 17.9307 37.333 18.2465 37.3333 18.576V21.424Z" fill="#7AC7C4"/>
<path d="M19.9998 10.6667C18.1539 10.6667 16.3494 11.2141 14.8145 12.2397C13.2797 13.2653 12.0834 14.7229 11.377 16.4284C10.6705 18.1338 10.4857 20.0104 10.8458 21.8209C11.206 23.6314 12.0949 25.2945 13.4002 26.5997C14.7055 27.905 16.3685 28.7939 18.179 29.1541C19.9895 29.5142 21.8661 29.3294 23.5716 28.623C25.277 27.9165 26.7347 26.7203 27.7602 25.1854C28.7858 23.6505 29.3332 21.846 29.3332 20.0001C29.3304 17.5256 28.3461 15.1533 26.5964 13.4035C24.8467 11.6538 22.4743 10.6696 19.9998 10.6667ZM19.9998 26.6667C18.6813 26.6667 17.3924 26.2758 16.296 25.5432C15.1997 24.8107 14.3452 23.7695 13.8406 22.5513C13.3361 21.3331 13.204 19.9927 13.4613 18.6995C13.7185 17.4063 14.3534 16.2184 15.2858 15.286C16.2181 14.3537 17.406 13.7187 18.6992 13.4615C19.9924 13.2043 21.3329 13.3363 22.5511 13.8409C23.7692 14.3455 24.8104 15.2 25.543 16.2963C26.2755 17.3926 26.6665 18.6815 26.6665 20.0001C26.6644 21.7675 25.9613 23.462 24.7115 24.7118C23.4618 25.9616 21.7673 26.6646 19.9998 26.6667Z" fill="#7AC7C4"/>
</svg>
