<svg width="96" height="52" viewBox="0 0 96 52" fill="none" xmlns="http://www.w3.org/2000/svg">
<path d="M27.8385 24.5714C27.8385 28.0262 25.0379 30.8268 21.5831 30.8268C18.1283 30.8268 15.3276 28.0262 15.3276 24.5714C15.3276 21.1166 18.1283 18.3159 21.5831 18.3159C25.0379 18.3159 27.8385 21.1166 27.8385 24.5714Z" fill="#D9D9D9"/>
<path d="M6.95179 27.8251C6.95179 25.7522 8.63218 24.0718 10.7051 24.0718V24.0718C12.7779 24.0718 14.4583 25.7522 14.4583 27.825V39.0849C14.4583 41.1577 12.7779 42.8381 10.7051 42.8381V42.8381C8.63218 42.8381 6.95179 41.1577 6.95179 39.0849V27.8251Z" fill="#7AC7C4"/>
<path d="M28.2203 9.05894C28.2203 6.98606 29.9007 5.30566 31.9736 5.30566V5.30566C34.0465 5.30566 35.7269 6.98606 35.7269 9.05894V20.3187C35.7269 22.3916 34.0465 24.072 31.9736 24.072V24.072C29.9007 24.072 28.2203 22.3916 28.2203 20.3187V9.05894Z" fill="#7AC7C4"/>
<path d="M26.2248 43.4639V32.5548H30.3157C31.1538 32.5548 31.8569 32.711 32.4251 33.0235C32.9968 33.336 33.4283 33.7657 33.7195 34.3126C34.0142 34.8559 34.1616 35.4738 34.1616 36.1663C34.1616 36.8659 34.0142 37.4873 33.7195 38.0306C33.4247 38.574 32.9897 39.0019 32.4144 39.3144C31.8391 39.6233 31.1307 39.7778 30.2891 39.7778H27.5778V38.1531H30.0227C30.5128 38.1531 30.9141 38.0679 31.2266 37.8975C31.5391 37.727 31.7699 37.4926 31.919 37.1943C32.0717 36.896 32.1481 36.5534 32.1481 36.1663C32.1481 35.7792 32.0717 35.4383 31.919 35.1436C31.7699 34.8488 31.5373 34.6198 31.2212 34.4564C30.9087 34.2895 30.5057 34.2061 30.0121 34.2061H28.201V43.4639H26.2248ZM36.5429 43.4639V35.282H38.4712V43.4639H36.5429ZM37.5124 34.1208C37.207 34.1208 36.9442 34.0196 36.724 33.8172C36.5038 33.6112 36.3937 33.3644 36.3937 33.0768C36.3937 32.7856 36.5038 32.5388 36.724 32.3364C36.9442 32.1304 37.207 32.0274 37.5124 32.0274C37.8213 32.0274 38.0841 32.1304 38.3007 32.3364C38.5209 32.5388 38.631 32.7856 38.631 33.0768C38.631 33.3644 38.5209 33.6112 38.3007 33.8172C38.0841 34.0196 37.8213 34.1208 37.5124 34.1208ZM43.1323 38.6698V43.4639H41.204V35.282H43.0471V36.6723H43.1429C43.3312 36.2142 43.6312 35.8502 44.0432 35.5803C44.4586 35.3105 44.9718 35.1755 45.5826 35.1755C46.1472 35.1755 46.639 35.2963 47.0581 35.5377C47.4807 35.7792 47.8074 36.129 48.0382 36.5871C48.2726 37.0452 48.388 37.6009 48.3844 38.2543V43.4639H46.4562V38.5526C46.4562 38.0058 46.3141 37.5779 46.03 37.2689C45.7495 36.96 45.3606 36.8055 44.8635 36.8055C44.5261 36.8055 44.226 36.8801 43.9633 37.0292C43.704 37.1748 43.4998 37.3861 43.3507 37.6631C43.2051 37.9401 43.1323 38.2757 43.1323 38.6698ZM54.6529 46.7025C53.9604 46.7025 53.3656 46.6084 52.8684 46.4202C52.3713 46.2355 51.9718 45.9869 51.6699 45.6744C51.3681 45.3619 51.1586 45.0157 51.0414 44.6357L52.7779 44.2149C52.856 44.3747 52.9696 44.5328 53.1188 44.689C53.2679 44.8488 53.4686 44.9802 53.7207 45.0832C53.9764 45.1897 54.2978 45.243 54.6848 45.243C55.2317 45.243 55.6845 45.1098 56.0432 44.8435C56.4018 44.5807 56.5812 44.1475 56.5812 43.5438V41.9937H56.4853C56.3858 42.1926 56.2402 42.3968 56.0485 42.6063C55.8603 42.8158 55.6099 42.9916 55.2974 43.1336C54.9885 43.2757 54.5996 43.3467 54.1309 43.3467C53.5023 43.3467 52.9324 43.1993 52.421 42.9046C51.9132 42.6063 51.5084 42.1624 51.2065 41.5729C50.9082 40.9798 50.7591 40.2377 50.7591 39.3463C50.7591 38.4479 50.9082 37.6897 51.2065 37.0718C51.5084 36.4504 51.915 35.9798 52.4263 35.6602C52.9377 35.3371 53.5076 35.1755 54.1362 35.1755C54.6156 35.1755 55.0098 35.2572 55.3187 35.4205C55.6312 35.5803 55.8798 35.7739 56.0645 36.0012C56.2491 36.2249 56.3894 36.4362 56.4853 36.635H56.5918V35.282H58.4934V43.597C58.4934 44.2966 58.3265 44.8754 57.9927 45.3335C57.6589 45.7916 57.2026 46.1343 56.6238 46.3616C56.0449 46.5889 55.388 46.7025 54.6529 46.7025ZM54.6689 41.8339C55.0772 41.8339 55.4253 41.7345 55.7129 41.5356C56.0005 41.3367 56.2189 41.0509 56.3681 40.678C56.5172 40.3051 56.5918 39.8577 56.5918 39.3357C56.5918 38.8208 56.5172 38.3698 56.3681 37.9827C56.2225 37.5956 56.0059 37.2955 55.7182 37.0825C55.4341 36.8659 55.0844 36.7575 54.6689 36.7575C54.2392 36.7575 53.8805 36.8694 53.5929 37.0931C53.3052 37.3169 53.0886 37.624 52.943 38.0146C52.7974 38.4017 52.7246 38.8421 52.7246 39.3357C52.7246 39.8364 52.7974 40.2749 52.943 40.6514C53.0922 41.0242 53.3106 41.3154 53.5982 41.5249C53.8894 41.7309 54.2463 41.8339 54.6689 41.8339Z" fill="#EA5581"/>
<path d="M43.285 28.9536V18.0445H47.3759C48.214 18.0445 48.9171 18.2008 49.4853 18.5133C50.057 18.8258 50.4885 19.2555 50.7797 19.8023C51.0744 20.3457 51.2218 20.9636 51.2218 21.656C51.2218 22.3556 51.0744 22.9771 50.7797 23.5204C50.4849 24.0637 50.0499 24.4916 49.4746 24.8041C48.8993 25.1131 48.1909 25.2675 47.3493 25.2675H44.638V23.6429H47.0829C47.573 23.6429 47.9743 23.5577 48.2868 23.3872C48.5993 23.2168 48.8301 22.9824 48.9792 22.6841C49.1319 22.3858 49.2083 22.0431 49.2083 21.656C49.2083 21.269 49.1319 20.928 48.9792 20.6333C48.8301 20.3386 48.5975 20.1095 48.2814 19.9462C47.9689 19.7793 47.5659 19.6958 47.0723 19.6958H45.2612V28.9536H43.285ZM57.0548 29.1134C56.2558 29.1134 55.5633 28.9376 54.9774 28.5861C54.3914 28.2345 53.9369 27.7427 53.6137 27.1106C53.2941 26.4785 53.1343 25.7398 53.1343 24.8947C53.1343 24.0495 53.2941 23.3091 53.6137 22.6734C53.9369 22.0378 54.3914 21.5442 54.9774 21.1926C55.5633 20.841 56.2558 20.6653 57.0548 20.6653C57.8538 20.6653 58.5463 20.841 59.1322 21.1926C59.7181 21.5442 60.1709 22.0378 60.4905 22.6734C60.8137 23.3091 60.9752 24.0495 60.9752 24.8947C60.9752 25.7398 60.8137 26.4785 60.4905 27.1106C60.1709 27.7427 59.7181 28.2345 59.1322 28.5861C58.5463 28.9376 57.8538 29.1134 57.0548 29.1134ZM57.0654 27.5687C57.4987 27.5687 57.8609 27.4497 58.1521 27.2118C58.4433 26.9703 58.6599 26.6472 58.8019 26.2423C58.9475 25.8375 59.0203 25.3865 59.0203 24.8893C59.0203 24.3886 58.9475 23.9359 58.8019 23.531C58.6599 23.1226 58.4433 22.7977 58.1521 22.5562C57.8609 22.3148 57.4987 22.194 57.0654 22.194C56.6215 22.194 56.2522 22.3148 55.9575 22.5562C55.6663 22.7977 55.4479 23.1226 55.3023 23.531C55.1602 23.9359 55.0892 24.3886 55.0892 24.8893C55.0892 25.3865 55.1602 25.8375 55.3023 26.2423C55.4479 26.6472 55.6663 26.9703 55.9575 27.2118C56.2522 27.4497 56.6215 27.5687 57.0654 27.5687ZM65.2901 24.1596V28.9536H63.3619V20.7718H65.2049V22.1621H65.3008C65.489 21.704 65.7891 21.34 66.201 21.0701C66.6165 20.8002 67.1296 20.6653 67.7404 20.6653C68.305 20.6653 68.7969 20.786 69.2159 21.0275C69.6385 21.269 69.9652 21.6187 70.196 22.0768C70.4304 22.5349 70.5458 23.0907 70.5423 23.7441V28.9536H68.614V24.0424C68.614 23.4955 68.4719 23.0676 68.1879 22.7587C67.9073 22.4497 67.5185 22.2952 67.0213 22.2952C66.6839 22.2952 66.3839 22.3698 66.1211 22.519C65.8619 22.6646 65.6577 22.8758 65.5085 23.1528C65.3629 23.4298 65.2901 23.7654 65.2901 24.1596ZM76.8107 32.1922C76.1183 32.1922 75.5234 32.0981 75.0263 31.9099C74.5291 31.7253 74.1296 31.4767 73.8278 31.1642C73.5259 30.8517 73.3164 30.5055 73.1992 30.1255L74.9357 29.7047C75.0138 29.8645 75.1275 30.0225 75.2766 30.1788C75.4258 30.3386 75.6264 30.4699 75.8786 30.5729C76.1342 30.6795 76.4556 30.7327 76.8427 30.7327C77.3896 30.7327 77.8423 30.5996 78.201 30.3332C78.5597 30.0704 78.739 29.6372 78.739 29.0335V27.4834H78.6431C78.5437 27.6823 78.3981 27.8865 78.2063 28.096C78.0181 28.3055 77.7678 28.4813 77.4553 28.6234C77.1463 28.7654 76.7575 28.8364 76.2887 28.8364C75.6602 28.8364 75.0902 28.6891 74.5788 28.3943C74.071 28.096 73.6662 27.6521 73.3643 27.0626C73.0661 26.4696 72.9169 25.7274 72.9169 24.8361C72.9169 23.9376 73.0661 23.1795 73.3643 22.5616C73.6662 21.9401 74.0728 21.4696 74.5842 21.15C75.0955 20.8268 75.6655 20.6653 76.294 20.6653C76.7734 20.6653 77.1676 20.7469 77.4766 20.9103C77.7891 21.0701 78.0376 21.2636 78.2223 21.4909C78.407 21.7146 78.5472 21.9259 78.6431 22.1248H78.7496V20.7718H80.6513V29.0868C80.6513 29.7864 80.4844 30.3652 80.1506 30.8233C79.8168 31.2814 79.3604 31.6241 78.7816 31.8513C78.2028 32.0786 77.5458 32.1922 76.8107 32.1922ZM76.8267 27.3236C77.2351 27.3236 77.5831 27.2242 77.8707 27.0253C78.1584 26.8265 78.3768 26.5406 78.5259 26.1677C78.6751 25.7949 78.7496 25.3474 78.7496 24.8254C78.7496 24.3105 78.6751 23.8595 78.5259 23.4724C78.3803 23.0854 78.1637 22.7853 77.8761 22.5722C77.592 22.3556 77.2422 22.2473 76.8267 22.2473C76.397 22.2473 76.0384 22.3592 75.7507 22.5829C75.4631 22.8066 75.2464 23.1138 75.1009 23.5044C74.9553 23.8915 74.8825 24.3318 74.8825 24.8254C74.8825 25.3261 74.9553 25.7647 75.1009 26.1411C75.25 26.514 75.4684 26.8052 75.756 27.0147C76.0472 27.2207 76.4041 27.3236 76.8267 27.3236Z" fill="#7AC7C4"/>
</svg>
