<svg width="28" height="28" viewBox="0 0 28 28" fill="none" xmlns="http://www.w3.org/2000/svg">
<path d="M23.625 16.5683C21.2126 16.5683 19.25 18.5312 19.25 20.9442C19.25 23.357 21.2126 25.3201 23.625 25.3201C26.0374 25.3201 28 23.357 28 20.9442C28 18.5312 26.0374 16.5683 23.625 16.5683ZM23.625 23.1322C22.4188 23.1322 21.4375 22.1505 21.4375 20.9442C21.4375 19.7376 22.4188 18.7563 23.625 18.7563C24.831 18.7563 25.8125 19.7376 25.8125 20.9442C25.8125 22.1505 24.831 23.1322 23.625 23.1322ZM17.0543 21.381L17.0563 21.379L6.42272 10.717C6.83371 9.1008 7.90987 7.41573 9.63799 5.68725C11.976 3.34851 14.6415 2.16466 17.1962 2.16466C19.3801 2.16466 21.483 3.0299 23.2312 4.77855C25.9593 7.50736 26.5234 11.1075 24.9966 14.5305C25.7141 14.6839 26.4005 14.9573 27.0271 15.339C27.5928 14.0368 27.9174 12.6876 27.9856 11.3203C28.1352 8.32268 26.996 5.44999 24.778 3.23146C22.5593 1.012 19.6844 -0.131859 16.6823 0.012108C13.6157 0.158263 10.6451 1.58568 8.09113 4.14007C5.35881 6.87295 3.99796 9.62722 4.046 12.3268C4.05825 13.0295 4.21242 13.6937 4.36131 14.2513C5.3655 18.0079 5.19868 18.311 3.08674 20.4232L0.63945 22.8563C-0.21315 23.7092 -0.21315 25.0974 0.63945 25.9503L2.04903 27.3602C2.47577 27.7868 3.03629 28 3.59651 28C4.15607 28 4.7152 27.7876 5.14045 27.3624L7.58511 24.9318L7.58817 24.9287C9.97513 22.5416 10.0683 22.4484 13.4652 23.3566C14.318 23.5848 15.1127 23.6923 15.8963 23.6843C16.4587 23.6788 17.0209 23.619 17.5805 23.5077C17.2932 22.831 17.1225 22.1107 17.0756 21.377C17.0686 21.3783 17.0616 21.3796 17.0543 21.381ZM9.38009 20.8539C8.20041 21.2225 7.34164 22.0813 6.04209 23.3811L3.59586 25.813L2.18404 24.4057L4.63133 21.9728C5.98181 20.6221 6.76519 19.6506 7.03671 18.3891C7.28884 17.2184 7.07109 15.9514 6.54014 13.9326L13.7599 21.1718C11.8502 20.6735 10.5634 20.4841 9.38009 20.8539Z" fill="#EA5581"/>
</svg>
