<svg width="29" height="28" viewBox="0 0 29 28" fill="none" xmlns="http://www.w3.org/2000/svg">
<path d="M19.5464 14.993C20.9258 13.9138 21.9325 12.4338 22.4267 10.759C22.9209 9.0842 22.8779 7.29786 22.3037 5.64849C21.7295 3.99913 20.6526 2.56876 19.2229 1.55639C17.7933 0.544027 16.0818 0 14.3268 0C12.5717 0 10.8603 0.544027 9.43063 1.55639C8.00095 2.56876 6.9241 3.99913 6.34989 5.64849C5.77568 7.29786 5.73268 9.0842 6.22685 10.759C6.72103 12.4338 7.72781 13.9138 9.10714 14.993C6.74364 15.9348 4.6814 17.4967 3.14027 19.5123C1.59915 21.528 0.63691 23.9217 0.356143 26.4384C0.335819 26.6222 0.352086 26.8081 0.404013 26.9856C0.455941 27.1631 0.542513 27.3287 0.658786 27.4729C0.89361 27.7642 1.23516 27.9507 1.6083 27.9916C1.98143 28.0324 2.35559 27.9241 2.64846 27.6906C2.94133 27.457 3.12892 27.1174 3.16997 26.7463C3.47891 24.0111 4.79029 21.485 6.85357 19.6507C8.91686 17.8163 11.5874 16.8022 14.3549 16.8022C17.1225 16.8022 19.793 17.8163 21.8563 19.6507C23.9196 21.485 25.2309 24.0111 25.5399 26.7463C25.5781 27.0901 25.7431 27.4076 26.0029 27.6376C26.2627 27.8675 26.599 27.9937 26.9468 27.9916H27.1016C27.4704 27.9494 27.8074 27.7639 28.0394 27.4756C28.2713 27.1873 28.3792 26.8195 28.3396 26.4524C28.0575 23.9286 27.0901 21.5287 25.5411 19.5099C23.992 17.4912 21.9198 15.9298 19.5464 14.993ZM14.3268 13.9996C13.2137 13.9996 12.1257 13.6714 11.2002 13.0564C10.2748 12.4414 9.55346 11.5673 9.12752 10.5446C8.70157 9.52197 8.59013 8.39664 8.80727 7.31097C9.02441 6.22531 9.5604 5.22806 10.3474 4.44533C11.1345 3.66261 12.1372 3.12957 13.2289 2.91362C14.3205 2.69766 15.4521 2.8085 16.4804 3.23211C17.5087 3.65571 18.3876 4.37306 19.006 5.29345C19.6244 6.21383 19.9544 7.29591 19.9544 8.40285C19.9544 9.88721 19.3615 11.3108 18.3061 12.3604C17.2508 13.41 15.8193 13.9996 14.3268 13.9996Z" fill="#7AC7C4"/>
</svg>
